<svg viewBox="0 0 512 512" xmlns="http://www.w3.org/2000/svg" xmlns:xlink="http://www.w3.org/1999/xlink"><linearGradient id="a" gradientTransform="matrix(1 0 0 -1 0 -15870)" gradientUnits="userSpaceOnUse" x1="0" x2="512" y1="-16126" y2="-16126"><stop offset="0" stop-color="#00f38d"/><stop offset="1" stop-color="#009eff"/></linearGradient><path d="m512 256c0 141.386719-114.613281 256-256 256s-256-114.613281-256-256 114.613281-256 256-256 256 114.613281 256 256zm0 0" fill="url(#a)"/><g fill="#fff"><path d="m431.355469 117.898438h-108.503907c-17.066406-16.925782-40.542968-27.398438-66.421874-27.398438-25.007813 0-48.859376 9.910156-66.480469 27.398438h-109.304688v30h228.433594c7.375 10.472656 11.722656 23.21875 11.722656 36.972656v33.722656h-73.085937c-.65625-6.957031-6.507813-12.402344-13.632813-12.402344-7.128906 0-12.980469 5.445313-13.636719 12.402344h-28.386718v-33.722656c0-2.960938.203125-5.933594.597656-8.835938l-29.71875-4.074218c-.585938 4.25-.878906 8.59375-.878906 12.910156v33.722656h-27.917969v47.878906c0 49.835938 30.324219 94.121094 75.417969 112.683594-1.75 5.25-2.808594 10.484375-2.808594 15.5 0 7.058594 1.511719 13.769531 4.207031 19.84375h-40.578125v30h171.246094v-30h-40.582031c2.695312-6.074219 4.207031-12.785156 4.207031-19.84375 0-5.886719-1.074219-11.007812-2.800781-15.515625 18.78125-7.777344 35.558593-20.238281 48.445312-36.210937 17.386719-21.558594 26.964844-48.710938 26.964844-76.457032v-47.878906h-27.058594v-33.722656c0-13.113282-2.691406-25.609375-7.546875-36.972656h88.101563zm-194.605469 276.757812c0-7.976562 7.691406-20.507812 15.515625-30.835938 3.878906 5.660157 8.453125 10.128907 12.382813 13.96875 7.695312 7.511719 10.601562 10.914063 10.601562 16.867188 0 10.566406-8.636719 19.160156-19.25 19.160156-10.617188 0-19.25-8.59375-19.25-19.160156zm111.109375-128.183594c0 40.734375-26.167969 75.839844-64.4375 87.695313-6.476563-6.464844-9.851563-10.847657-9.851563-18.679688v-15h-21.484374l-4.152344 3.414063c-2.730469 2.246094-14.222656 13.773437-24.378906 28.523437-35.398438-13.335937-59.414063-47.441406-59.414063-85.953125v-17.878906h183.71875zm0 0"/><path d="m290.933594 182.21875c0 7.566406-6.132813 13.699219-13.699219 13.699219s-13.699219-6.132813-13.699219-13.699219 6.132813-13.699219 13.699219-13.699219 13.699219 6.132813 13.699219 13.699219zm0 0"/></g></svg>