<svg viewBox="0 0 512 512" xmlns="http://www.w3.org/2000/svg" xmlns:xlink="http://www.w3.org/1999/xlink"><linearGradient id="a" gradientTransform="matrix(1 0 0 -1 0 -18718)" gradientUnits="userSpaceOnUse" x1="0" x2="512" y1="-18974" y2="-18974"><stop offset="0" stop-color="#00f38d"/><stop offset="1" stop-color="#009eff"/></linearGradient><path d="m512 256c0 141.386719-114.613281 256-256 256s-256-114.613281-256-256 114.613281-256 256-256 256 114.613281 256 256zm0 0" fill="url(#a)"/><g fill="#fff"><path d="m428.5 157.894531c0-22.554687-19.828125-42.453125-55.839844-56.035156-31.394531-11.839844-72.828125-18.359375-116.660156-18.359375s-85.265625 6.519531-116.660156 18.359375c-36.011719 13.582031-55.839844 33.480469-55.839844 56.035156 0 .449219.019531.890625.035156 1.335938h-.035156v194.871093c0 22.558594 19.828125 42.457032 55.839844 56.035157 31.394531 11.84375 72.828125 18.363281 116.660156 18.363281s85.265625-6.519531 116.660156-18.359375c36.011719-13.582031 55.839844-33.480469 55.839844-56.035156v-194.875h-.035156c.015625-.445313.035156-.886719.035156-1.335938zm-278.574219-27.960937c28.09375-10.597656 65.765625-16.433594 106.074219-16.433594s77.980469 5.835938 106.074219 16.433594c26.886719 10.136718 36.425781 21.398437 36.425781 27.964844 0 6.5625-9.539062 17.824218-36.425781 27.960937-28.097657 10.597656-65.769531 16.433594-106.074219 16.433594s-77.980469-5.835938-106.074219-16.433594c-26.886719-10.136719-36.425781-21.398437-36.425781-27.960937 0-6.566407 9.539062-17.828126 36.425781-27.964844zm212.148438 252.132812c-28.09375 10.597656-65.765625 16.433594-106.074219 16.433594s-77.980469-5.835938-106.074219-16.433594c-26.886719-10.136718-36.425781-21.398437-36.425781-27.964844v-9.847656c7.355469 4.589844 15.984375 8.777344 25.839844 12.492188 31.394531 11.84375 72.828125 18.363281 116.660156 18.363281s85.265625-6.519531 116.660156-18.363281c9.855469-3.714844 18.484375-7.90625 25.839844-12.492188v9.847656c0 6.566407-9.539062 17.828126-36.425781 27.964844zm0-53.386718c-28.09375 10.59375-65.765625 16.429687-106.074219 16.429687s-77.980469-5.835937-106.074219-16.429687c-26.886719-10.140626-36.425781-21.402344-36.425781-27.964844v-45.886719c7.355469 4.585937 15.984375 8.777344 25.839844 12.492187 31.394531 11.839844 72.828125 18.359376 116.660156 18.359376s85.265625-6.519532 116.660156-18.359376c9.855469-3.714843 18.484375-7.90625 25.839844-12.492187v45.886719c0 6.5625-9.539062 17.824218-36.425781 27.964844zm0-89.429688c-28.097657 10.597656-65.769531 16.433594-106.074219 16.433594s-77.980469-5.835938-106.074219-16.433594c-26.886719-10.136719-36.425781-21.398438-36.425781-27.964844v-9.847656c7.355469 4.585938 15.984375 8.777344 25.839844 12.492188 31.394531 11.84375 72.828125 18.363281 116.660156 18.363281s85.265625-6.523438 116.660156-18.363281c9.855469-3.714844 18.484375-7.90625 25.839844-12.492188v9.847656c0 6.566406-9.539062 17.828125-36.425781 27.964844zm0 0"/><path d="m307.953125 181.578125c3.832031-.007813 7.886719.003906 11.617187.035156 2.253907.023438 4.425782.042969 6.519532.042969 13.527344 0 23.601562-.835938 30.527344-7.699219 3.746093-3.714843 5.8125-8.703125 5.8125-14.046875 0-5.351562-2.066407-10.34375-5.816407-14.0625-7.996093-7.917968-20.148437-7.800781-36.96875-7.644531-4.675781.042969-9.828125.042969-14.5 0-16.828125-.160156-28.976562-.273437-36.972656 7.644531-3.75 3.71875-5.816406 8.710938-5.816406 14.0625 0 5.167969 2.011719 10.023438 5.667969 13.667969 8.113281 8.089844 20.777343 8.054687 39.929687 8zm0 0"/></g></svg>