<svg viewBox="0 0 512 512" xmlns="http://www.w3.org/2000/svg" xmlns:xlink="http://www.w3.org/1999/xlink"><linearGradient id="a" gradientTransform="matrix(1 0 0 -1 0 -18718)" gradientUnits="userSpaceOnUse" x1="0" x2="512" y1="-18974" y2="-18974"><stop offset="0" stop-color="#00f38d"/><stop offset="1" stop-color="#009eff"/></linearGradient><path d="m512 256c0 141.386719-114.613281 256-256 256s-256-114.613281-256-256 114.613281-256 256-256 256 114.613281 256 256zm0 0" fill="url(#a)"/><path d="m413.992188 200.34375c0-45.8125-36.195313-83.320312-81.488282-85.449219-8.4375-33.785156-39.03125-58.894531-75.394531-58.894531-36.378906 0-66.988281 25.128906-75.40625 58.9375-44.921875 2.527344-80.695313 39.863281-80.695313 85.40625 0 35.652344 21.929688 66.269531 53 79.101562l93.277344 176.554688h19.617188l93.902344-176.480469c31.171874-12.789062 53.1875-43.453125 53.1875-79.175781zm-156.882813-114.34375c21.117187 0 39.0625 13.796875 45.328125 32.847656-18.496094 5.914063-34.28125 17.953125-44.9375 33.730469-10.796875-15.980469-26.839844-28.132813-45.640625-33.964844 6.332031-18.929687 24.214844-32.613281 45.25-32.613281zm34.605469 191.59375c.933594.445312 1.882812.871094 2.835937 1.285156l16.304688 30.644532-18.25 34.300781-18.0625-33.949219zm-34.164063.347656-9.621093-18.082031c3.519531-3.628906 6.730468-7.550781 9.570312-11.753906 2.855469 4.230469 6.09375 8.175781 9.636719 11.820312zm-36.648437.730469c.824218-.363281 1.652344-.726563 2.460937-1.113281l17.195313 32.316406-18.335938 34.460938-18.066406-34.191407zm-89.894532-78.328125c0-30.632812 24.917969-55.550781 55.550782-55.550781 30.628906 0 55.550781 24.917969 55.550781 55.550781s-24.921875 55.550781-55.550781 55.550781c-30.632813 0-55.550782-24.917969-55.550782-55.550781zm126.144532 210.113281-18-34.070312 18.398437-34.578125 18.0625 33.949218zm71.289062-154.5625c-30.628906 0-55.550781-24.917969-55.550781-55.550781s24.921875-55.550781 55.550781-55.550781c30.632813 0 55.550782 24.917969 55.550782 55.550781s-24.917969 55.550781-55.550782 55.550781zm0 0" fill="#fff"/></svg>