<svg viewBox="0 0 512 512" xmlns="http://www.w3.org/2000/svg" xmlns:xlink="http://www.w3.org/1999/xlink"><linearGradient id="a" gradientTransform="matrix(1 0 0 -1 0 -18718)" gradientUnits="userSpaceOnUse" x1="0" x2="512" y1="-18974" y2="-18974"><stop offset="0" stop-color="#00f38d"/><stop offset="1" stop-color="#009eff"/></linearGradient><path d="m512 256c0 141.386719-114.613281 256-256 256s-256-114.613281-256-256 114.613281-256 256-256 256 114.613281 256 256zm0 0" fill="url(#a)"/><g fill="#fff"><path d="m167.949219 364.214844c0 7.136718-5.785157 12.921875-12.921875 12.921875-7.140625 0-12.925782-5.785157-12.925782-12.921875 0-7.136719 5.785157-12.925782 12.925782-12.925782 7.136718 0 12.921875 5.789063 12.921875 12.925782zm0 0"/><path d="m379.898438 229.160156c0 7.136719-5.785157 12.925782-12.921876 12.925782-7.140624 0-12.925781-5.789063-12.925781-12.925782 0-7.136718 5.785157-12.921875 12.925781-12.921875 7.136719 0 12.921876 5.785157 12.921876 12.921875zm0 0"/><path d="m382.605469 388.0625c-5.796875 5.765625-14.449219 7.203125-18.433594 7.558594-5.265625-.738282-9.335937-5.261719-9.335937-10.730469 0-5.980469 4.863281-10.847656 10.847656-10.847656v-30h-65.242188l99.863282-63.527344c28.300781-18.007813 36.6875-55.695313 18.695312-84.011719-8.714844-13.722656-22.253906-23.226562-38.113281-26.761718-.328125-.074219-.660157-.128907-.992188-.195313l-286.394531-78.980469v21.15625c.023438 1.824219.472656 18.421875 9.871094 38.054688 8.777344 18.324218 27.296875 42.832031 65.691406 55.5 22.515625 7.433594 57.222656 17.578125 83.363281 25.058594l-130.730469 83.171874c-28.300781 18.003907-36.6875 55.691407-18.695312 84.011719 8.71875 13.71875 22.253906 23.222657 38.113281 26.757813 4.4375.988281 8.90625 1.480468 13.34375 1.480468.292969 0 .585938-.011718.878907-.019531h206.34375c.125.003907.269531.003907.441406.003907.476562 0 1.136718-.011719 1.9375-.042969.539062.019531 1.082031.039062 1.625.039062v-.128906c7.898437-.550781 24.765625-3.261719 37.769531-15.972656 7.152344-6.988281 15.679687-19.757813 15.679687-40.898438h-30c0 8.636719-2.136718 14.957031-6.527343 19.324219zm-56.308594-14.019531c-.953125 3.457031-1.460937 7.09375-1.460937 10.847656 0 3.757813.519531 7.390625 1.472656 10.847656h-107.121094l34.101562-21.695312zm-147.832031-197.253907c-31.160156-10.28125-44.660156-30.359374-50.507813-45.601562l195.550781 53.925781-37.171874 23.648438c-22.246094-6.25-77.394532-21.914063-107.871094-31.972657zm-30.824219 218.207032c-8.039063-1.792969-14.898437-6.609375-19.320313-13.5625-9.125-14.367188-4.871093-33.484375 9.480469-42.613282l213.324219-135.71875c6.519531-4.148437 14.191406-5.679687 21.753906-4.371093l1.09375.304687.019532-.082031c.125.027344.246093.042969.367187.070313 8.039063 1.792968 14.898437 6.609374 19.316406 13.566406 9.128907 14.363281 4.875 33.480468-9.476562 42.609375l-213.324219 135.71875c-6.945312 4.421875-15.195312 5.867187-23.234375 4.078125zm0 0"/></g></svg>