<svg viewBox="0 0 512 512" xmlns="http://www.w3.org/2000/svg" xmlns:xlink="http://www.w3.org/1999/xlink"><linearGradient id="a" gradientTransform="matrix(1 0 0 -1 0 -18718)" gradientUnits="userSpaceOnUse" x1="0" x2="512" y1="-18974" y2="-18974"><stop offset="0" stop-color="#00f38d"/><stop offset="1" stop-color="#009eff"/></linearGradient><path d="m512 256c0 141.386719-114.613281 256-256 256s-256-114.613281-256-256 114.613281-256 256-256 256 114.613281 256 256zm0 0" fill="url(#a)"/><g fill="#fff"><path d="m251.996094 405.96875c-81.058594 0-147.007813-65.945312-147.007813-147.007812 0-81.058594 65.949219-147.003907 147.007813-147.003907 11.582031 0 23.109375 1.347657 34.265625 4.011719l6.960937-29.183594c-13.429687-3.203125-27.300781-4.828125-41.226562-4.828125-97.601563 0-177.007813 79.402344-177.007813 177.003907 0 97.601562 79.40625 177.007812 177.007813 177.007812 25.007812 0 49.183594-5.113281 71.863281-15.199219l-12.191406-27.410156c-18.816407 8.367187-38.890625 12.609375-59.671875 12.609375zm0 0"/><path d="m398.992188 260.824219c-.257813 20.53125-4.65625 40.339843-13.085938 58.882812l27.316406 12.414063c10.15625-22.351563 15.460938-46.210938 15.765625-70.921875zm0 0"/><path d="m251.996094 350.222656c-50.320313 0-91.257813-40.9375-91.257813-91.261718 0-50.320313 40.9375-91.257813 91.257813-91.257813 4.390625 0 8.796875.3125 13.105468.933594l4.265626-29.695313c-5.714844-.824218-11.558594-1.238281-17.371094-1.238281-66.859375 0-121.257813 54.394531-121.257813 121.261719 0 66.863281 54.394531 121.257812 121.257813 121.257812 27.507812 0 53.441406-8.980468 75-25.96875l-18.570313-23.5625c-16.214843 12.777344-35.730469 19.53125-56.429687 19.53125zm0 0"/><path d="m428.09375 187.386719v-2.488281c0-16.972657-6.984375-40.894532-17.792969-60.933594-14.292969-26.503906-32.691406-41.097656-51.816406-41.097656-19.121094 0-37.523437 14.59375-51.816406 41.097656-10.640625 19.730468-17.792969 44.21875-17.792969 60.933594v2.488281c0 30.902343 23.414062 56.804687 54.609375 63.203125v183.121094h30v-183.121094c31.195313-6.398438 54.609375-32.300782 54.609375-63.203125zm-109.21875 0v-2.488281c0-25.4375 23.285156-72.03125 39.609375-72.03125 16.320313 0 39.609375 46.59375 39.609375 72.03125v2.488281c0 19.152343-17.769531 34.730469-39.609375 34.730469s-39.609375-15.578126-39.609375-34.730469zm0 0"/></g></svg>