<svg viewBox="0 0 512 512" xmlns="http://www.w3.org/2000/svg" xmlns:xlink="http://www.w3.org/1999/xlink"><linearGradient id="a" gradientTransform="matrix(1 0 0 -1 0 -18718)" gradientUnits="userSpaceOnUse" x1="0" x2="512" y1="-18974" y2="-18974"><stop offset="0" stop-color="#00f38d"/><stop offset="1" stop-color="#009eff"/></linearGradient><path d="m512 256c0 141.386719-114.613281 256-256 256s-256-114.613281-256-256 114.613281-256 256-256 256 114.613281 256 256zm0 0" fill="url(#a)"/><g fill="#fff"><path d="m300.214844 269.238281 21.5625-21.558593-21.214844-21.214844-21.5625 21.5625c-2.808594-1.496094-5.769531-2.738282-8.859375-3.6875v-30.476563h-30v30.476563c-3.089844.949218-6.050781 2.195312-8.863281 3.6875l-21.558594-21.5625-21.214844 21.214844 21.5625 21.558593c-1.492187 2.8125-2.738281 5.773438-3.6875 8.863281h-30.476562v30h30.476562c.949219 3.089844 2.195313 6.050782 3.6875 8.863282l-21.558594 21.558594 21.210938 21.214843 21.5625-21.5625c2.808594 1.492188 5.769531 2.738281 8.859375 3.6875v30.476563h30v-30.476563c3.089844-.949219 6.050781-2.195312 8.863281-3.6875l21.558594 21.5625 21.214844-21.214843-21.5625-21.558594c1.496094-2.8125 2.738281-5.773438 3.691406-8.863282h30.472656v-30h-30.472656c-.957031-3.089843-2.199219-6.050781-3.691406-8.863281zm-24.058594 23.863281c0 11.589844-9.425781 21.015626-21.015625 21.015626s-21.019531-9.425782-21.019531-21.015626c0-11.589843 9.429687-21.015624 21.019531-21.015624s21.015625 9.425781 21.015625 21.015624zm0 0"/><path d="m308.144531 147.71875h-1.988281v-85.71875h-102.035156v85.71875h-1.265625c-46.566407 0-84.453125 37.886719-84.453125 84.453125v156.015625c0 24.15625 19.65625 43.8125 43.8125 43.8125h186.566406c24.160156 0 43.816406-19.65625 43.816406-43.8125v-156.015625c0-46.566406-37.886718-84.453125-84.453125-84.453125zm-74.023437-55.71875h42.035156v55.71875h-42.035156zm128.476562 296.1875c0 7.617188-6.195312 13.8125-13.8125 13.8125h-186.570312c-7.617188 0-13.8125-6.195312-13.8125-13.8125v-156.015625c0-30.023437 24.425781-54.453125 54.453125-54.453125h105.289062c30.023438 0 54.453125 24.429688 54.453125 54.453125zm0 0"/></g></svg>