<svg viewBox="0 0 512 512" xmlns="http://www.w3.org/2000/svg" xmlns:xlink="http://www.w3.org/1999/xlink"><linearGradient id="a" gradientTransform="matrix(1 0 0 -1 0 -18718)" gradientUnits="userSpaceOnUse" x1="0" x2="512" y1="-18974" y2="-18974"><stop offset="0" stop-color="#00f38d"/><stop offset="1" stop-color="#009eff"/></linearGradient><path d="m512 256c0 141.386719-114.613281 256-256 256s-256-114.613281-256-256 114.613281-256 256-256 256 114.613281 256 256zm0 0" fill="url(#a)"/><path d="m389.054688 238.4375c2.808593-26.914062 4.234374-47 4.234374-59.691406 0-18.527344-3.640624-38.140625-10.816406-58.289063-14.15625-39.75-52.117187-66.457031-94.460937-66.457031h-63.378907c-20.476562 0-40.199218 6.140625-57.042968 17.761719-16.871094 11.640625-29.601563 27.914062-36.816406 47.066406-8.003907 21.242187-12.0625 41.402344-12.0625 59.917969 0 12.410156 1.433593 31.953125 4.378906 59.753906 1.304687 12.316406 7.3125 23.050781 16.128906 30.511719-6.960938 9.535156-10.0625 21.421875-8.542969 33.234375 1.023438 7.945312 2.066407 15.898437 3.117188 23.75v.003906c1.613281 12.074219 7.863281 22.582031 16.796875 29.824219-6.804688 9.628906-9.71875 21.53125-8.027344 33.320312 1.351562 9.414063 2.59375 17.941407 3.667969 25.25 3.320312 22.578125 23.035156 39.605469 45.863281 39.605469h127.867188c22.785156 0 42.496093-16.992188 45.851562-39.523438 1.085938-7.308593 2.34375-15.84375 3.710938-25.265624 1.710937-11.796876-1.191407-23.710938-7.992188-33.351563 8.949219-7.242187 15.214844-17.753906 16.835938-29.835937 1.054687-7.855469 2.105468-15.8125 3.128906-23.769532 1.523437-11.820312-1.585938-23.714844-8.554688-33.257812 8.820313-7.472656 14.824219-18.222656 16.113282-30.558594zm-105.632813-154.4375c9.003906 0 16.339844 7.324219 16.355469 16.335938l.109375 47.023437c.007812 4.375-1.691407 8.488281-4.78125 11.585937-3.089844 3.09375-7.199219 4.800782-11.574219 4.800782h-55.039062c-4.371094 0-8.480469-1.703125-11.570313-4.796875-3.089844-3.089844-4.789063-7.199219-4.785156-11.566407l.046875-47.039062c.007812-9.011719 7.34375-16.34375 16.355468-16.34375zm-124.574219 45.402344c4.75-12.613282 13-23.296875 23.390625-31.132813-.03125.679688-.054687 1.359375-.054687 2.046875l-.046875 47.039063c-.007813 12.386719 4.808593 24.035156 13.5625 32.800781 8.757812 8.765625 20.402343 13.589844 32.792969 13.589844h55.039062c12.398438 0 24.050781-4.832032 32.808594-13.605469 8.757812-8.773437 13.570312-20.433594 13.546875-32.839844l-.109375-47.027343c0-.871094-.03125-1.734376-.082032-2.59375 11.042969 8.101562 19.730469 19.402343 24.515626 32.84375 6.023437 16.910156 9.078124 33.132812 9.078124 48.222656 0 11.65625-1.371093 30.691406-4.074218 56.578125-.871094 8.351562-7.867188 14.652343-16.269532 14.652343h-173.757812c-8.390625 0-15.382812-6.292968-16.265625-14.636718-2.792969-26.367188-4.210937-45.40625-4.210937-56.59375 0-14.890625 3.410156-31.492188 10.136718-49.34375zm192.894532 169.019531c-1.019532 7.898437-2.0625 15.808594-3.109376 23.613281-1.082031 8.074219-8.054687 14.167969-16.207031 14.167969h-152.6875c-8.160156 0-15.128906-6.097656-16.210937-14.179687-1.042969-7.804688-2.082032-15.710938-3.097656-23.609376-.609376-4.726562.789062-9.304687 3.9375-12.886718 3.152343-3.582032 7.515624-5.554688 12.285156-5.554688h158.867187c4.769531 0 9.132813 1.972656 12.285157 5.558594 3.148437 3.582031 4.546874 8.15625 3.9375 12.890625zm-11.90625 86.480469c-1.363282 9.382812-2.613282 17.882812-3.699219 25.15625-1.183594 7.949218-8.136719 13.941406-16.175781 13.941406h-127.867188c-8.054688 0-15.011719-6.007812-16.183594-13.972656-1.066406-7.273438-2.304687-15.769532-3.652344-25.144532-.683593-4.769531.675782-9.398437 3.832032-13.035156 3.152344-3.640625 7.542968-5.644531 12.359375-5.644531h135.199219c4.820312 0 9.210937 2.007813 12.367187 5.652344s4.511719 8.28125 3.820313 13.046875zm0 0" fill="#fff"/></svg>