<svg viewBox="0 0 512 512" xmlns="http://www.w3.org/2000/svg" xmlns:xlink="http://www.w3.org/1999/xlink"><linearGradient id="a" gradientTransform="matrix(1 0 0 -1 0 -18718)" gradientUnits="userSpaceOnUse" x1="0" x2="512" y1="-18974" y2="-18974"><stop offset="0" stop-color="#00f38d"/><stop offset="1" stop-color="#009eff"/></linearGradient><path d="m512 256c0 141.386719-114.613281 256-256 256s-256-114.613281-256-256 114.613281-256 256-256 256 114.613281 256 256zm0 0" fill="url(#a)"/><g fill="#fff"><path d="m423.976562 327.539062c-.175781-47.851562-39.160156-86.722656-87.050781-86.722656h-23.582031v30h7.753906c16.667969 0 30.230469 13.5625 30.230469 30.230469 0 16.671875-13.5625 32.308594-30.230469 32.308594h-29.425781c-.691406 8.566406-1.75 19.261719-3.171875 27.925781h32.59375c33.214844 0 60.234375-27.019531 60.234375-60.230469 0-3.398437-.296875-6.722656-.839844-9.964843 8.40625 9.9375 13.488281 22.773437 13.488281 36.78125l.050782.003906c-.191406 34.574218-30.804688 59.628906-72.933594 59.628906h-63.042969c7.191407-26.53125 10.839844-52.757812 10.839844-78.191406v-.152344c0-61.214844-21.339844-115.921875-39.242187-151.039062-19.328126-37.910157-38.585938-61.425782-39.398438-62.40625l-11.609375-14.074219-11.5625 14.113281c-.804687.980469-19.9375 24.492188-39.132813 62.40625-17.777343 35.109375-38.96875 89.804688-38.96875 151v.152344c0 25.433594 3.625 51.65625 10.773438 78.191406h-8.695312v30h230.039062c27.445312 0 52.914062-8.535156 71.722656-24.042969 20.125-16.59375 31.210938-40.003906 31.210938-65.914062zm-185.085937-18.386718v.152344c0 25.265624-4.050781 51.523437-12.035156 78.195312h-32.277344v-231.171875c20.261719 35.703125 44.3125 91.089844 44.3125 152.824219zm-119.914063.152344v-.152344c0-63.167969 25.171876-119.898438 45.601563-155.542969v233.890625h-33.652344c-7.925781-26.671875-11.949219-52.929688-11.949219-78.195312zm0 0"/><path d="m363.742188 202.964844c33.210937 0 60.234374-27.019532 60.234374-60.230469 0-33.214844-27.023437-60.234375-60.234374-60.234375-33.210938 0-60.230469 27.023438-60.230469 60.234375s27.019531 60.230469 60.230469 60.230469zm0-90.464844c16.671874 0 30.234374 13.5625 30.234374 30.230469 0 16.671875-13.5625 30.234375-30.234374 30.234375-16.667969 0-30.230469-13.5625-30.230469-30.234375 0-16.667969 13.5625-30.230469 30.230469-30.230469zm0 0"/></g></svg>