<svg viewBox="0 0 512 512" xmlns="http://www.w3.org/2000/svg" xmlns:xlink="http://www.w3.org/1999/xlink"><linearGradient id="a" gradientTransform="matrix(1 0 0 -1 0 -18718)" gradientUnits="userSpaceOnUse" x1="0" x2="512" y1="-18974" y2="-18974"><stop offset="0" stop-color="#00f38d"/><stop offset="1" stop-color="#009eff"/></linearGradient><path d="m512 256c0 141.386719-114.613281 256-256 256s-256-114.613281-256-256 114.613281-256 256-256 256 114.613281 256 256zm0 0" fill="url(#a)"/><g fill="#fff"><path d="m242.734375 275.640625c-2.480469-4.910156-6.773437-13.191406-11.769531-21.941406-15.199219-26.617188-23.230469-33.546875-28.53125-36.605469-19.734375-11.410156-45.070313-4.636719-56.480469 15.101562-11.40625 19.738282-4.632813 45.074219 15.105469 56.480469 13.449218 7.773438 51.019531 11.542969 66.3125 12.785157l171.582031 115.597656 16.761719-24.882813zm-66.664063-12.9375c-5.414062-3.128906-7.273437-10.082031-4.144531-15.496094 3.105469-5.367187 9.964844-7.238281 15.359375-4.222656 3.316406 2.453125 10.289063 12.777344 17.800782 25.875-14.25-1.960937-25.761719-4.304687-29.015626-6.15625zm0 0"/><path d="m189.796875 320.03125c-45.472656 0-82.464844-37.109375-82.464844-82.726562 0-53.058594 44.667969-95.898438 80.546875-121.742188 7.457032 34.21875 30.042969 51.324219 48.847656 65.566406 20.628907 15.625 35.53125 26.910156 35.53125 56.175782 0 10.082031-1.78125 19.925781-5.296874 29.253906l28.070312 10.582031c4.796875-12.726563 7.226562-26.128906 7.226562-39.835937 0-44.175782-25.191406-63.257813-47.417968-80.089844-21.1875-16.046875-39.484375-29.90625-39.484375-66.5v-15h-21.789063l-4.175781 2.644531c-41.851563 26.476563-112.058594 82.335937-112.058594 158.945313 0 62.15625 50.449219 112.726562 112.464844 112.726562 13.78125 0 27.253906-2.472656 40.03125-7.355469l-10.703125-28.023437c-9.347656 3.570312-19.21875 5.378906-29.328125 5.378906zm0 0"/></g></svg>