<svg viewBox="0 0 512 512" xmlns="http://www.w3.org/2000/svg" xmlns:xlink="http://www.w3.org/1999/xlink"><linearGradient id="a" gradientTransform="matrix(1 0 0 -1 0 -17294)" gradientUnits="userSpaceOnUse" x1="0" x2="512" y1="-17550" y2="-17550"><stop offset="0" stop-color="#00f38d"/><stop offset="1" stop-color="#009eff"/></linearGradient><path d="m512 256c0 141.386719-114.613281 256-256 256s-256-114.613281-256-256 114.613281-256 256-256 256 114.613281 256 256zm0 0" fill="url(#a)"/><g fill="#fff"><path d="m397.1875 127.488281h-75.816406v-13.8125c0-24.160156-19.65625-43.8125-43.8125-43.8125h-43.113282c-24.160156 0-43.8125 19.652344-43.8125 43.8125v13.8125h-75.816406c-24.164062 0-43.816406 19.65625-43.816406 43.816407v187.980468c0 24.160156 19.652344 43.8125 43.8125 43.8125h282.375c24.15625 0 43.8125-19.652344 43.8125-43.8125v-187.980468c0-24.160157-19.652344-43.816407-43.8125-43.816407zm-176.558594-13.8125c0-7.617187 6.195313-13.8125 13.8125-13.8125h43.113282c7.617187 0 13.8125 6.195313 13.8125 13.8125v13.8125h-70.738282zm190.371094 245.609375c0 7.617188-6.195312 13.8125-13.8125 13.8125h-282.375c-7.617188 0-13.8125-6.195312-13.8125-13.8125v-187.980468c0-7.617188 6.195312-13.816407 13.8125-13.816407h282.375c7.617188 0 13.8125 6.199219 13.8125 13.816407zm0 0"/><path d="m271 198.804688h-30v55.464843h-54.023438v30h54.023438v52.585938h30v-52.585938h54.023438v-30h-54.023438zm0 0"/></g></svg>