<svg viewBox="0 0 512 512" xmlns="http://www.w3.org/2000/svg" xmlns:xlink="http://www.w3.org/1999/xlink"><linearGradient id="a" gradientTransform="matrix(1 0 0 -1 0 -17294)" gradientUnits="userSpaceOnUse" x1="0" x2="512" y1="-17550" y2="-17550"><stop offset="0" stop-color="#00f38d"/><stop offset="1" stop-color="#009eff"/></linearGradient><path d="m512 256c0 141.386719-114.613281 256-256 256s-256-114.613281-256-256 114.613281-256 256-256 256 114.613281 256 256zm0 0" fill="url(#a)"/><path d="m377.992188 256.984375h-11.085938v-20.199219c2.226562 4.578125 6.90625 7.738282 12.339844 7.738282 7.582031 0 13.730468-6.144532 13.730468-13.726563s-6.148437-13.730469-13.730468-13.730469c-5.714844 0-10.613282 3.496094-12.679688 8.464844-1.644531-13.25-9.410156-24.625-20.378906-31.1875 4.433594-7.386719 6.992188-16.015625 6.992188-25.234375 0-19.085937-11.066407-30.128906-19.148438-38.195313-7.714844-7.703124-11.742188-12.132812-11.742188-20.933593v-15h-21.484374l-4.152344 3.414062c-4.023438 3.308594-14.0625 13.726563-22.84375 25.578125-12.789063 17.269532-19.273438 32.457032-19.273438 45.136719 0 9.21875 2.554688 17.847656 6.992188 25.234375-12.398438 7.421875-20.722656 20.980469-20.722656 36.453125v26.1875h-6.925782c-4.984375-13.875-16.992187-24.421875-31.71875-27.335937v-145.648438h-66.480468c-23.410157 0-42.457032 19.046875-42.457032 42.457031v124.933594c0 23.410156 19.046875 42.457031 42.457032 42.457031h22.28125c6.277343 9.972656 16.582031 17.15625 28.617187 19.261719v82.433594c0 23.410156 19.042969 42.457031 42.457031 42.457031h137.285156c23.414063 0 42.460938-19.046875 42.460938-42.457031v-138.558594zm-80.164063-115.035156c.960937-1.300781 1.929687-2.566407 2.890625-3.789063 3.792969 5.675782 8.273438 10.144532 12.121094 13.988282 7.503906 7.488281 10.339844 10.890624 10.339844 16.960937 0 10.605469-8.667969 19.230469-19.324219 19.230469-10.652344 0-19.320313-8.628906-19.320313-19.230469-.003906-2.148437.957032-10.464844 13.292969-27.160156zm-27.023437 88.847656c0-6.867187 5.589843-12.457031 12.457031-12.457031h41.1875c6.871093 0 12.457031 5.589844 12.457031 12.457031v26.1875h-66.101562zm-147.585938 20.59375v-124.933594c0-6.867187 5.589844-12.457031 12.460938-12.457031h36.480468v120.847656c-10.355468 6.203125-17.855468 16.691406-20.042968 29h-16.4375c-6.871094 0-12.460938-5.585937-12.460938-12.457031zm58.230469 19.90625c0-6.867187 5.589843-12.457031 12.457031-12.457031 6.871094 0 12.457031 5.589844 12.457031 12.457031s-5.585937 12.457031-12.457031 12.457031c-6.867188 0-12.457031-5.589844-12.457031-12.457031zm197.328125 124.246094c0 6.867187-5.585938 12.457031-12.457032 12.457031h-137.289062c-6.867188 0-12.457031-5.589844-12.457031-12.457031v-88.375c7.519531-4.765625 13.4375-11.820313 16.773437-20.183594h145.429688zm0 0" fill="#fff"/></svg>