<svg viewBox="0 0 512 512" xmlns="http://www.w3.org/2000/svg" xmlns:xlink="http://www.w3.org/1999/xlink"><linearGradient id="a" gradientTransform="matrix(1 0 0 -1 0 -17294)" gradientUnits="userSpaceOnUse" x1="0" x2="512" y1="-17550" y2="-17550"><stop offset="0" stop-color="#00f38d"/><stop offset="1" stop-color="#009eff"/></linearGradient><path d="m512 256c0 141.386719-114.613281 256-256 256s-256-114.613281-256-256 114.613281-256 256-256 256 114.613281 256 256zm0 0" fill="url(#a)"/><g fill="#fff"><path d="m271.3125 75.3125c0 8.457031-6.855469 15.3125-15.3125 15.3125s-15.3125-6.855469-15.3125-15.3125 6.855469-15.3125 15.3125-15.3125 15.3125 6.855469 15.3125 15.3125zm0 0"/><path d="m271.3125 436.6875c0 8.457031-6.855469 15.3125-15.3125 15.3125s-15.3125-6.855469-15.3125-15.3125 6.855469-15.3125 15.3125-15.3125 15.3125 6.855469 15.3125 15.3125zm0 0"/><path d="m90.625 256c0 8.457031-6.855469 15.3125-15.3125 15.3125s-15.3125-6.855469-15.3125-15.3125 6.855469-15.3125 15.3125-15.3125 15.3125 6.855469 15.3125 15.3125zm0 0"/><path d="m452 256c0 8.457031-6.855469 15.3125-15.3125 15.3125s-15.3125-6.855469-15.3125-15.3125 6.855469-15.3125 15.3125-15.3125 15.3125 6.855469 15.3125 15.3125zm0 0"/><path d="m394.59375 139.734375c5.980469-5.980469 5.980469-15.675781 0-21.65625s-15.675781-5.980469-21.65625 0c-5.632812 5.632813-5.953125 14.5625-.976562 20.578125-29.832032-29.484375-70.804688-47.71875-115.960938-47.71875s-86.128906 18.234375-115.960938 47.71875c4.976563-6.015625 4.65625-14.945312-.976562-20.578125-5.980469-5.980469-15.675781-5.980469-21.65625 0s-5.980469 15.675781 0 21.65625c5.675781 5.675781 14.695312 5.953125 20.710938.855469-29.167969 29.78125-47.179688 70.527344-47.179688 115.410156 0 91.015625 74.046875 165.0625 165.0625 165.0625s165.0625-74.046875 165.0625-165.0625c0-44.882812-18.011719-85.628906-47.179688-115.410156 6.015626 5.097656 15.035157 4.820312 20.710938-.855469zm-138.59375 131.890625c-8.613281 0-15.625-7.011719-15.625-15.625s7.011719-15.625 15.625-15.625 15.625 7.011719 15.625 15.625-7.011719 15.625-15.625 15.625zm19.855469-56.695312c-1.570313-.761719-3.191407-1.429688-4.855469-2.007813v-91.148437c26.015625 2.886718 49.824219 13.195312 69.261719 28.753906zm-34.855469-2.007813c-1.664062.578125-3.289062 1.246094-4.855469 2.007813l-64.40625-64.402344c19.4375-15.558594 43.246094-25.867188 69.261719-28.753906zm-26.070312 23.21875c-.761719 1.570313-1.429688 3.195313-2.007813 4.859375h-91.148437c2.890624-26.015625 13.195312-49.824219 28.753906-69.261719zm-2.007813 34.859375c.578125 1.664062 1.246094 3.289062 2.007813 4.859375l-64.402344 64.402344c-15.558594-19.4375-25.867188-43.246094-28.753906-69.261719zm23.222656 26.070312c1.570313.761719 3.191407 1.429688 4.855469 2.007813v91.148437c-26.015625-2.886718-49.824219-13.195312-69.261719-28.753906zm34.855469 2.007813c1.664062-.578125 3.289062-1.246094 4.855469-2.007813l64.40625 64.402344c-19.4375 15.558594-43.246094 25.867188-69.261719 28.753906zm26.070312-23.21875c.761719-1.570313 1.429688-3.195313 2.007813-4.859375h91.148437c-2.890624 26.015625-13.195312 49.824219-28.753906 69.261719zm2.007813-34.859375c-.578125-1.664062-1.246094-3.289062-2.007813-4.859375l64.402344-64.402344c15.558594 19.4375 25.867188 43.246094 28.753906 69.261719zm0 0"/><path d="m143.546875 383.859375c0 8.457031-6.855469 15.3125-15.3125 15.3125s-15.3125-6.855469-15.3125-15.3125 6.855469-15.3125 15.3125-15.3125 15.3125 6.855469 15.3125 15.3125zm0 0"/><path d="m399.078125 383.859375c0 8.457031-6.855469 15.3125-15.3125 15.3125s-15.3125-6.855469-15.3125-15.3125 6.855469-15.3125 15.3125-15.3125 15.3125 6.855469 15.3125 15.3125zm0 0"/></g></svg>