<svg viewBox="0 0 512 512" xmlns="http://www.w3.org/2000/svg" xmlns:xlink="http://www.w3.org/1999/xlink"><linearGradient id="a" gradientTransform="matrix(1 0 0 -1 0 -17294)" gradientUnits="userSpaceOnUse" x1="0" x2="512" y1="-17550" y2="-17550"><stop offset="0" stop-color="#00f38d"/><stop offset="1" stop-color="#009eff"/></linearGradient><path d="m512 256c0 141.386719-114.613281 256-256 256s-256-114.613281-256-256 114.613281-256 256-256 256 114.613281 256 256zm0 0" fill="url(#a)"/><path d="m451 178.046875-.117188-12.355469-12.148437-2.25c-.753906-.140625-51.476563-9.722656-109.332031-31.332031l8.207031-14.832031-74.25-41.199219-11.128906 20.113281c-2.839844-1.667968-5.65625-3.367187-8.425781-5.101562l-13.171876-8.242188-63.453124 109.773438 15.121093 6.820312c3.28125 1.476563 6.644531 3.132813 10.066407 4.929688l-90.027344 162.707031c-11.359375 20.46875-3.945313 46.363281 16.523437 57.722656 6.507813 3.613281 13.5625 5.324219 20.523438 5.324219 14.941406 0 29.457031-7.890625 37.210937-21.863281l86.082032-155.570313c46.957031 37.769532 87.867187 79.035156 88.507812 79.683594l8.980469 9.097656 10.40625-7.421875c1.507812-1.074219 37.132812-26.78125 58.820312-67.742187 21.804688-41.183594 21.625-86.359375 21.605469-88.261719zm-209.78125-53.5625c43.453125 24.828125 92.019531 42.042969 129.464844 53-1.832032 12.738281-5.785156 30.15625-14.332032 46.300781-9.613281 18.152344-23.292968 32.574219-32.777343 41.261719-32.492188-29.050781-75.976563-64.789063-114.148438-85.5625zm-90.863281 269.238281c-3.332031 6.003906-10.929688 8.179688-16.9375 4.847656-6.003907-3.332031-8.179688-10.929687-4.839844-16.953124l89.550781-161.832032c6.777344 4.480469 13.652344 9.3125 20.519532 14.367188zm252.527343-141.449218c-11.910156 22.492187-29.296874 39.941406-40.042968 49.421874-4.429688-4.324218-10.21875-9.890624-17.054688-16.304687 11.191406-10.511719 26.121094-26.871094 37.078125-47.570313 9.691407-18.304687 14.542969-37.484374 16.972657-52.398437 8.113281 2.042969 15.054687 3.648437 20.480468 4.84375-1.355468 14.332031-5.398437 39.269531-17.433594 62.007813zm0 0" fill="#fff"/></svg>