<svg viewBox="0 0 512 512" xmlns="http://www.w3.org/2000/svg" xmlns:xlink="http://www.w3.org/1999/xlink"><linearGradient id="a" gradientTransform="matrix(1 0 0 -1 0 -17294)" gradientUnits="userSpaceOnUse" x1="0" x2="512" y1="-17550" y2="-17550"><stop offset="0" stop-color="#00f38d"/><stop offset="1" stop-color="#009eff"/></linearGradient><path d="m512 256c0 141.386719-114.613281 256-256 256s-256-114.613281-256-256 114.613281-256 256-256 256 114.613281 256 256zm0 0" fill="url(#a)"/><g fill="#fff"><path d="m340.417969 248.5c-51.808594 0-93.957031 42.148438-93.957031 93.960938 0 51.808593 42.148437 93.957031 93.957031 93.957031 51.808593 0 93.957031-42.148438 93.957031-93.957031 0-51.8125-42.148438-93.960938-93.957031-93.960938zm0 157.917969c-35.269531 0-63.957031-28.691407-63.957031-63.957031 0-35.269532 28.691406-63.960938 63.957031-63.960938s63.957031 28.691406 63.957031 63.960938c0 35.265624-28.691406 63.957031-63.957031 63.957031zm0 0"/><path d="m224.488281 401.425781v-254.917969l75.277344-19.535156v99.34375h30v-99.550781l74.660156 18.546875.449219 109.089844 30-.125-.546875-132.449219-119.644531-29.71875-105.371094 27.339844-119.4375-28.144531v315.1875l119.667969 29.730468 37.925781-9.710937-7.441406-29.066407zm-104.613281-272.230469 74.609375 17.582032v254.789062l-74.609375-18.53125zm0 0"/><path d="m355.75 296.816406h-30v59.644532h53.648438v-30h-23.648438zm0 0"/></g></svg>