<svg viewBox="0 0 512 512" xmlns="http://www.w3.org/2000/svg" xmlns:xlink="http://www.w3.org/1999/xlink"><linearGradient id="a" gradientTransform="matrix(1 0 0 -1 0 -17294)" gradientUnits="userSpaceOnUse" x1="0" x2="512" y1="-17550" y2="-17550"><stop offset="0" stop-color="#00f38d"/><stop offset="1" stop-color="#009eff"/></linearGradient><path d="m512 256c0 141.386719-114.613281 256-256 256s-256-114.613281-256-256 114.613281-256 256-256 256 114.613281 256 256zm0 0" fill="url(#a)"/><g fill="#fff"><path d="m242.546875 101.363281-3.972656-8.863281h-14.238281l-6.886719-.273438-4.453125 5.453126c-1.066406 1.148437-12.453125 12.914062-32.601563 12.914062h-12.921875c-20.140625 0-31.527344-11.753906-32.601562-12.914062l-4.222656-5.179688h-21.355469l-3.972657 8.863281c-9.746093 21.742188-16.820312 58.835938-16.820312 88.203125 0 37.660156 15.582031 73.628906 28.105469 102.527344 8.476562 19.5625 16.480469 38.039062 16.480469 49.972656v44.585938c0 22.523437 18.324218 40.847656 40.847656 40.847656 22.523437 0 40.847656-18.324219 40.847656-40.847656v-44.585938c0-11.933594 8.003906-30.410156 16.480469-49.972656 12.523437-28.898438 28.105469-64.867188 28.105469-102.527344 0-29.367187-7.074219-66.460937-16.820313-88.203125zm-57.765625 285.289063c0 5.980468-4.867188 10.847656-10.847656 10.847656-5.980469 0-10.847656-4.867188-10.847656-10.847656v-51.695313c0-5.980469 4.867187-10.847656 10.847656-10.847656 5.980468 0 10.847656 4.867187 10.847656 10.847656zm18.953125-106.488282c-3.003906 6.9375-5.878906 13.582032-8.449219 19.988282-2.007812-1.238282-4.132812-2.296875-6.351562-3.175782v-132.613281h-30v132.613281c-2.21875.878907-4.34375 1.9375-6.351563 3.175782-2.570312-6.40625-5.445312-13.050782-8.449219-19.988282-12.015624-27.726562-25.632812-59.15625-25.632812-90.597656 0-20.289062 3.871094-43.234375 8.683594-60.179687 9.359375 5.679687 22.929687 11.207031 40.289062 11.207031h12.921875c17.363281 0 30.929688-5.527344 40.289063-11.207031 4.8125 16.941406 8.683594 39.890625 8.683594 60.179687 0 31.441406-13.617188 62.871094-25.632813 90.597656zm0 0"/><path d="m395.394531 227.90625c-8.476562-19.5625-16.480469-38.039062-16.480469-49.972656v-44.585938c0-22.523437-18.324218-40.847656-40.847656-40.847656-22.523437 0-40.847656 18.324219-40.847656 40.847656v44.585938c0 11.9375-8.003906 30.414062-16.480469 49.972656-12.523437 28.902344-28.105469 64.867188-28.105469 102.527344 0 29.367187 7.074219 66.460937 16.820313 88.203125l3.976563 8.863281h21.132812l4.492188-5.238281c.109374-.128907 11.601562-12.855469 32.550781-12.855469h12.921875c20.144531 0 31.53125 11.761719 32.601562 12.914062l4.222656 5.179688h21.355469l3.972657-8.863281c9.75-21.742188 16.824218-58.835938 16.824218-88.199219-.003906-37.664062-15.585937-73.628906-28.109375-102.53125zm-68.175781-94.558594c0-5.980468 4.867188-10.847656 10.847656-10.847656 5.980469 0 10.847656 4.867188 10.847656 10.847656v51.695313c0 5.980469-4.867187 10.847656-10.847656 10.847656-5.980468 0-10.847656-4.867187-10.847656-10.847656zm57.597656 257.265625c-9.359375-5.679687-22.929687-11.207031-40.289062-11.207031h-12.921875c-17.363281 0-30.929688 5.527344-40.289063 11.207031-4.8125-16.945312-8.683594-39.890625-8.683594-60.179687 0-31.441406 13.617188-62.871094 25.628907-90.597656 3.007812-6.9375 5.882812-13.585938 8.453125-19.988282 2.007812 1.238282 4.132812 2.296875 6.351562 3.175782v132.613281h30v-132.613281c2.214844-.878907 4.339844-1.9375 6.347656-3.175782 2.574219 6.40625 5.449219 13.054688 8.453126 19.988282 12.015624 27.726562 25.632812 59.15625 25.632812 90.597656 0 20.289062-3.871094 43.234375-8.683594 60.179687zm0 0"/></g></svg>