<svg viewBox="0 0 512 512" xmlns="http://www.w3.org/2000/svg" xmlns:xlink="http://www.w3.org/1999/xlink"><linearGradient id="a" gradientTransform="matrix(1 0 0 -1 0 -17294)" gradientUnits="userSpaceOnUse" x1="0" x2="512" y1="-17550" y2="-17550"><stop offset="0" stop-color="#00f38d"/><stop offset="1" stop-color="#009eff"/></linearGradient><path d="m512 256c0 141.386719-114.613281 256-256 256s-256-114.613281-256-256 114.613281-256 256-256 256 114.613281 256 256zm0 0" fill="url(#a)"/><g fill="#fff"><path d="m374.457031 304.582031c-11.179687 0-20.601562-7.5625-23.277343-17.777343 7.464843-14.726563 11.25-30.148438 11.25-45.972657 0-58.316406-47.445313-105.761719-105.761719-105.761719-58.320313 0-105.765625 47.445313-105.765625 105.761719 0 15.695313 3.476562 31.101563 10.113281 45.148438-2.378906 10.625-11.996094 18.601562-23.476563 18.601562-13.253906 0-24.039062-10.636719-24.039062-23.707031h-30c0 29.613281 24.242188 53.707031 54.039062 53.707031 15.515626 0 29.511719-6.539062 39.375-16.976562 9.867188 10.4375 23.863282 16.976562 39.375 16.976562 15.863282 0 30.148438-6.828125 40.042969-17.679687 9.894531 10.851562 24.183594 17.679687 40.042969 17.679687 15.339844 0 29.195312-6.394531 39.042969-16.628906 9.84375 10.234375 23.699219 16.628906 39.039062 16.628906 29.800781 0 54.042969-24.09375 54.042969-53.707031h-30c0 13.070312-10.785156 23.707031-24.042969 23.707031zm-78.082031 0c-13.253906 0-24.039062-10.636719-24.039062-23.707031h-32.003907c0 13.070312-10.785156 23.707031-24.039062 23.707031-13.257813 0-24.042969-10.636719-24.042969-23.707031h-1l.789062-.484375c-7.285156-11.867187-11.132812-25.546875-11.132812-39.558594 0-41.773437 33.988281-75.761719 75.761719-75.761719 41.777343 0 75.765625 33.988282 75.765625 75.761719 0 13.492188-4.027344 26.753907-11.96875 39.414063l1.003906.628906h-1.050781c0 13.070312-10.785157 23.707031-24.042969 23.707031zm0 0"/><path d="m385.152344 225.832031h43.347656v30h-43.347656zm0 0"/><path d="m83.5 225.832031h43.347656v30h-43.347656zm0 0"/><path d="m241.667969 68.332031h30v43.347657h-30zm0 0"/><path d="m398.558594 141.582031 15 25.980469-37.539063 21.675781-15-25.980469zm0 0"/><path d="m333.941406 85.882812 25.585938 15.660157-22.628906 36.972656-25.589844-15.664063zm0 0"/><path d="m183.390625 83.945312 21.671875 37.539063-25.976562 15-21.675782-37.539063zm0 0"/><path d="m117.261719 138.136719 37 22.59375-15.636719 25.605469-37-22.59375zm0 0"/><path d="m374.457031 382.664062c-13.253906 0-24.039062-10.632812-24.039062-23.707031h-31.335938c0 13.074219-10.785156 23.707031-24.042969 23.707031-13.253906 0-24.039062-10.632812-24.039062-23.707031h-30c0 13.074219-10.785156 23.707031-24.042969 23.707031-13.257812 0-24.039062-10.632812-24.039062-23.707031h-31.335938c0 13.074219-10.785156 23.707031-24.042969 23.707031-13.253906 0-24.039062-10.632812-24.039062-23.707031h-30c0 29.613281 24.242188 53.707031 54.042969 53.707031 15.683593 0 29.824219-6.679687 39.707031-17.324218 9.882812 10.644531 24.023438 17.324218 39.707031 17.324218 15.339844 0 29.195313-6.394531 39.042969-16.628906 9.847656 10.234375 23.703125 16.628906 39.042969 16.628906 15.683593 0 29.824219-6.679687 39.707031-17.324218 9.882812 10.644531 24.023438 17.324218 39.707031 17.324218 29.800781 0 54.042969-24.09375 54.042969-53.707031h-30c0 13.074219-10.785156 23.707031-24.042969 23.707031zm0 0"/></g></svg>