<svg viewBox="0 0 512 512" xmlns="http://www.w3.org/2000/svg" xmlns:xlink="http://www.w3.org/1999/xlink"><linearGradient id="a" gradientTransform="matrix(1 0 0 -1 0 -17294)" gradientUnits="userSpaceOnUse" x1="0" x2="512" y1="-17550" y2="-17550"><stop offset="0" stop-color="#00f38d"/><stop offset="1" stop-color="#009eff"/></linearGradient><path d="m512 256c0 141.386719-114.613281 256-256 256s-256-114.613281-256-256 114.613281-256 256-256 256 114.613281 256 256zm0 0" fill="url(#a)"/><path d="m404.230469 227.957031c-2.589844 0-4.984375.382813-7.214844 1.0625 4.1875-2.5625 8.324219-5.652343 12.273437-9.402343 10.800782-10.25 23.671876-28.8125 23.671876-59.03125 0-1.191407.007812-2.363282.015624-3.515626.089844-11.1875.179688-22.757812-8.273437-31.273437-5.046875-5.089844-11.9375-7.667969-20.472656-7.667969-13.972657 0-22.238281 11.023438-29.527344 20.757813-7.695313 10.269531-13.3125 17.003906-20.949219 17.003906l-59.417968-.003906v-75.617188h-30v75.613281h-72.964844v-75.613281h-30v75.613281h-82.375v84.914063h82.375v24.917969l-82.375-.003906v84.917968h82.375v16.675782c-16.03125 6.078124-27.460938 21.582031-27.460938 39.714843h27.460938v24.710938h30v-24.710938h27.457031c0-18.132812-11.429687-33.636719-27.457031-39.714843v-16.675782h72.964844v16.675782c-16.027344 6.078124-27.457032 21.582031-27.457032 39.714843h27.457032v24.710938h30v-24.710938h27.460937c0-18.132812-11.429687-33.636719-27.460937-39.714843v-16.675782h59.132812c12.515625 0 36.410156-2.753906 55.820312-21.179687 10.800782-10.25 23.671876-28.8125 23.671876-59.035157 0-1.191406.007812-2.363281.015624-3.511718.089844-11.1875.179688-22.757813-8.273437-31.273438-5.046875-5.09375-11.933594-7.671875-20.472656-7.671875zm-109.890625 12.839844h59.128906c8.21875 0 21.351562-1.1875 34.894531-7.226563-5.367187 4.085938-9.660156 9.808594-13.660156 15.144532-7.695313 10.269531-13.3125 17.003906-20.949219 17.003906h-59.414062zm59.414062-54.910156c23.214844 0 36.300782-17.457031 44.960938-29.015625 1.238281-1.65625 2.804687-3.742188 4.261718-5.53125.035157 1.875.015626 3.863281.003907 5.496094-.007813 1.226562-.019531 2.476562-.019531 3.75 0 19.566406-7.789063 31.070312-14.324219 37.273437-11.855469 11.253906-27.121094 12.9375-35.167969 12.9375h-59.128906v-24.910156zm-89.414062 79.824219h-72.96875v-24.914063h72.96875zm0-79.828126v24.914063h-72.96875v-24.914063zm-155.34375 24.914063v-24.914063h52.375v24.914063zm0 109.832031v-24.914062h52.375v24.914062zm82.375 0v-24.917968h72.96875v24.917968zm211.609375-53.960937c-.007813 1.226562-.019531 2.476562-.019531 3.746093 0 19.570313-7.789063 31.074219-14.324219 37.277344-11.859375 11.253906-27.125 12.9375-35.167969 12.9375h-59.128906v-24.910156h59.414062c23.214844 0 36.300782-17.460938 44.960938-29.015625 1.238281-1.65625 2.804687-3.742187 4.261718-5.53125.03125 1.875.015626 3.863281.003907 5.496094zm0 0" fill="#fff"/></svg>