<svg viewBox="0 0 512 512" xmlns="http://www.w3.org/2000/svg" xmlns:xlink="http://www.w3.org/1999/xlink"><linearGradient id="a" gradientTransform="matrix(1 0 0 -1 0 -17294)" gradientUnits="userSpaceOnUse" x1="0" x2="512" y1="-17550" y2="-17550"><stop offset="0" stop-color="#00f38d"/><stop offset="1" stop-color="#009eff"/></linearGradient><path d="m512 256c0 141.386719-114.613281 256-256 256s-256-114.613281-256-256 114.613281-256 256-256 256 114.613281 256 256zm0 0" fill="url(#a)"/><g fill="#fff"><path d="m372.304688 391.097656c-12.96875 0-23.523438-10.40625-23.523438-23.195312v-1.148438l-28.480469-184.410156h-16.957031v-41.125h12.511719v-24.851562l-60.441407-35.914063-60.4375 35.914063v24.851562h12.511719v41.125h-16.960937l-28.476563 184.410156v1.148438c0 12.789062-10.554687 23.195312-23.527343 23.195312-12.96875 0-23.523438-10.40625-23.523438-23.195312h-30c0 29.332031 24.011719 53.195312 53.523438 53.195312 15.117187 0 28.785156-6.273437 38.527343-16.320312 9.742188 10.046875 23.402344 16.320312 38.519531 16.320312 15.8125 0 30.035157-6.855468 39.84375-17.71875 9.808594 10.863282 24.03125 17.71875 39.84375 17.71875 15.113282 0 28.777344-6.273437 38.519532-16.320312 9.746094 10.046875 23.410156 16.320312 38.527344 16.320312 29.515624 0 53.523437-23.863281 53.523437-53.195312h-30c0 12.789062-10.550781 23.195312-23.523437 23.195312zm-134.816407-249.878906h35.855469v41.121094h-35.855469zm57.769531 249.878906c-12.972656 0-23.527343-10.40625-23.527343-23.195312h-32.632813c0 12.789062-10.550781 23.195312-23.523437 23.195312-12.636719 0-22.972657-9.875-23.5-22.207031l24.179687-156.550781h78.324219l24.179687 156.550781c-.527343 12.332031-10.867187 22.207031-23.5 22.207031zm0 0"/><path d="m240.414062 236.855469h30v26.339843h-30zm0 0"/><path d="m240.414062 289.535156h30v26.34375h-30zm0 0"/><path d="m430.085938 183.632812-52.796876-23.441406 52.605469-22.484375-11.789062-27.585937-88.460938 37.808594v23.929687l88.269531 39.191406zm0 0"/></g></svg>