<svg viewBox="0 0 512 512" xmlns="http://www.w3.org/2000/svg" xmlns:xlink="http://www.w3.org/1999/xlink"><linearGradient id="a" gradientTransform="matrix(1 0 0 -1 0 -15870)" gradientUnits="userSpaceOnUse" x1="0" x2="512" y1="-16126" y2="-16126"><stop offset="0" stop-color="#00f38d"/><stop offset="1" stop-color="#009eff"/></linearGradient><path d="m512 256c0 141.386719-114.613281 256-256 256s-256-114.613281-256-256 114.613281-256 256-256 256 114.613281 256 256zm0 0" fill="url(#a)"/><path d="m421.425781 351.160156h-27.1875c.957031-3.457031 1.476563-7.09375 1.476563-10.847656v-151.207031c0-22.523438-18.324219-40.847657-40.847656-40.847657h-10.847657v-8.910156c0-22.523437-18.324219-40.847656-40.847656-40.847656h-18.738281c-22.523438 0-40.847656 18.324219-40.847656 40.847656v8.910156h-10.847657c-22.523437 0-40.847656 18.320313-40.847656 40.847657v151.207031c0 3.753906.519531 7.390625 1.472656 10.847656h-7.914062c-7.839844 0-15.253907-6.171875-15.253907-12.695312v-197.144532c0-22.808593-21.203124-42.820312-45.371093-42.820312h-34.25v30h34.25c7.613281 0 15.371093 6.46875 15.371093 12.820312v197.144532c0 23.144531 20.726563 42.695312 45.253907 42.695312h8.097656c-1.070313 3.648438-1.65625 7.5-1.65625 11.492188 0 22.523437 18.324219 40.847656 40.847656 40.847656 22.523438 0 40.847657-18.324219 40.847657-40.847656 0-3.992188-.585938-7.84375-1.660157-11.492188h44.398438c-1.074219 3.648438-1.660157 7.5-1.660157 11.492188 0 22.523437 18.324219 40.847656 40.847657 40.847656 22.523437 0 40.847656-18.324219 40.847656-40.847656 0-3.992188-.582031-7.84375-1.65625-11.492188h26.722656zm-147.839843-211.8125c0-5.980468 4.863281-10.847656 10.847656-10.847656h18.738281c5.980469 0 10.847656 4.867188 10.847656 10.847656v8.910156h-40.433593zm-51.695313 200.964844v-151.207031c0-5.984375 4.867187-10.847657 10.847656-10.847657h10.847657v115.527344h30v-115.527344h40.433593v115.527344h30v-115.527344h10.847657c5.980468 0 10.847656 4.863282 10.847656 10.847657v151.207031c0 5.980469-4.863282 10.847656-10.847656 10.847656h-122.128907c-5.980469 0-10.847656-4.867187-10.847656-10.847656zm10.847656 63.1875c-5.980469 0-10.847656-4.863281-10.847656-10.847656 0-5.980469 4.863281-10.847656 10.847656-10.847656 5.980469 0 10.847657 4.867187 10.847657 10.847656 0 5.984375-4.867188 10.847656-10.847657 10.847656zm122.773438 0c-5.980469 0-10.847657-4.863281-10.847657-10.847656 0-5.980469 4.867188-10.847656 10.847657-10.847656 5.984375 0 10.847656 4.867187 10.847656 10.847656 0 5.984375-4.867187 10.847656-10.847656 10.847656zm0 0" fill="#fff"/></svg>