<svg viewBox="0 0 512 512" xmlns="http://www.w3.org/2000/svg" xmlns:xlink="http://www.w3.org/1999/xlink"><linearGradient id="a" gradientTransform="matrix(1 0 0 -1 0 -15870)" gradientUnits="userSpaceOnUse" x1="0" x2="512" y1="-16126" y2="-16126"><stop offset="0" stop-color="#00f38d"/><stop offset="1" stop-color="#009eff"/></linearGradient><path d="m512 256c0 141.386719-114.613281 256-256 256s-256-114.613281-256-256 114.613281-256 256-256 256 114.613281 256 256zm0 0" fill="url(#a)"/><g fill="#fff"><path d="m403.769531 350.789062c-.140625-4.988281-1.40625-41.195312-8.210937-61.828124l-6.914063-97.425782c-.890625-16.496094-8.78125-31.015625-20.707031-40.738281v-66.796875h-30v54.105469h-25.285156v-12.640625c0-23.515625-19.128906-42.644532-42.640625-42.644532h-27.644531c-23.511719 0-42.640626 19.128907-42.640626 42.644532v12.640625h-25.285156v-54.105469h-30v64.113281c-11.34375 9.207031-18.410156 24.304688-19.425781 43.390625l-7.335937 97.425782c-6.8125 20.625-8.078126 56.867187-8.222657 61.855468-1.136719 23.1875 7.042969 45.210938 23.039063 62.042969 16.035156 16.878906 37.6875 26.171875 60.96875 26.171875h126.300781c23.277344 0 44.929687-9.292969 60.96875-26.171875 15.996094-16.828125 24.171875-38.855469 23.035156-62.039063zm-45.082031-157.566406 5.996094 84.476563h-22.71875l-3.054688-42.265625c-.320312-23.238282-19.324218-42.042969-42.640625-42.042969h-78.777343c-23.304688 0-42.308594 18.796875-42.640626 42.027344l-3.054687 42.28125h-23.1875l6.335937-84.117188.019532-.359375c.851562-16.667968 7.242187-25.117187 19-25.117187h158.296875c14.097656 0 25.710937 11.03125 26.425781 25.117187zm-46.800781 84.476563h-110.011719l2.933594-40.597657.039062-1.074218c.003906-6.96875 5.675782-12.636719 12.644532-12.636719h78.777343c6.972657 0 12.644531 5.671875 12.644531 12.640625v.542969zm-82.160157-152.234375c0-6.972656 5.671876-12.644532 12.644532-12.644532h27.640625c6.972656 0 12.644531 5.671876 12.644531 12.644532v12.640625h-52.929688zm129.257813 266.699218c-10.3125 10.859376-24.242187 16.835938-39.21875 16.835938h-126.300781c-14.976563 0-28.90625-5.976562-39.222656-16.835938-10.316407-10.855468-15.578126-25.070312-14.8125-40.023437l.011718-.351563c.234375-8.378906 1.4375-29.113281 4.367188-44.089843h225.613281c2.921875 14.960937 4.128906 35.707031 4.363281 44.089843l.015625.351563c.761719 14.953125-4.496093 29.167969-14.816406 40.023437zm0 0"/><path d="m213.363281 326.074219h87.054688v30h-87.054688zm0 0"/></g></svg>