<svg viewBox="0 0 512 512" xmlns="http://www.w3.org/2000/svg" xmlns:xlink="http://www.w3.org/1999/xlink"><linearGradient id="a" gradientTransform="matrix(1 0 0 -1 0 -15870)" gradientUnits="userSpaceOnUse" x1="0" x2="512" y1="-16126" y2="-16126"><stop offset="0" stop-color="#00f38d"/><stop offset="1" stop-color="#009eff"/></linearGradient><path d="m512 256c0 141.386719-114.613281 256-256 256s-256-114.613281-256-256 114.613281-256 256-256 256 114.613281 256 256zm0 0" fill="url(#a)"/><g fill="#fff"><path d="m361.746094 99.476562c-28.1875-27.851562-65.398438-43.273437-104.855469-43.472656l-.78125-.003906v.003906c-39.457031.199219-76.667969 15.621094-104.855469 43.472656-28.496094 28.15625-44.191406 65.507813-44.191406 105.179688 0 63.851562 57.714844 116.195312 95.902344 150.832031 12.734375 11.550781 28.5 25.851563 31.089844 31.640625v14h44.894531v-13.753906c2.8125-5.703125 18.105469-19.792969 30.476562-31.191406 38.433594-35.410156 96.515625-88.925782 96.515625-151.527344-.003906-39.671875-15.699218-77.023438-44.195312-105.179688zm-94.195313 192.585938c-3.71875 9.1875-7.375 18.234375-10.730469 27.117188-3.796874-10.175782-7.972656-20.355469-12.105468-30.425782-12.84375-31.304687-26.125-63.675781-26.125-91.546875 0-55.367187 19.480468-84.242187 37.910156-104.269531 18.429688 20.027344 37.914062 48.902344 37.914062 104.269531 0 28.449219-13.65625 62.210938-26.863281 94.855469zm-44.429687 41.207031c-36.320313-32.941406-86.058594-78.054687-86.058594-128.613281 0-52.179688 34.1875-96.597656 81.550781-112.445312-15.878906 22.808593-30.027343 55.480468-30.027343 104.996093 0 33.789063 14.425781 68.941407 28.375 102.933594 5.992187 14.601563 11.824218 28.824219 16.34375 42.410156-3.183594-2.933593-6.578126-6.015625-10.183594-9.28125zm65.972656.851563c-3.046875 2.808594-5.941406 5.476562-8.6875 8.03125 4.25-12.375 9.535156-25.441406 14.953125-38.835938 14.285156-35.308594 29.054687-71.820312 29.054687-106.109375 0-49.515625-14.148437-82.1875-30.027343-104.996093 47.363281 15.847656 81.550781 60.265624 81.550781 112.445312 0 49.449219-52.261719 97.601562-86.84375 129.464844zm0 0"/><path d="m233.375 426h47.035156v30h-47.035156zm0 0"/></g></svg>