<svg viewBox="0 0 512 512" xmlns="http://www.w3.org/2000/svg" xmlns:xlink="http://www.w3.org/1999/xlink"><linearGradient id="a" gradientTransform="matrix(1 0 0 -1 0 -15870)" gradientUnits="userSpaceOnUse" x1="0" x2="512" y1="-16126" y2="-16126"><stop offset="0" stop-color="#00f38d"/><stop offset="1" stop-color="#009eff"/></linearGradient><path d="m512 256c0 141.386719-114.613281 256-256 256s-256-114.613281-256-256 114.613281-256 256-256 256 114.613281 256 256zm0 0" fill="url(#a)"/><g fill="#fff"><path d="m145.488281 71c-24.160156 0-43.8125 19.65625-43.8125 43.8125v282.375c0 24.15625 19.652344 43.8125 43.8125 43.8125h267.835938v-370zm237.835938 340h-237.835938c-7.617187 0-13.8125-6.195312-13.8125-13.8125v-282.375c0-7.617188 6.195313-13.8125 13.8125-13.8125h237.835938zm0 0"/><path d="m187.988281 341.128906h139.746094v30h-139.746094zm0 0"/><path d="m249.929688 325.40625c2.273437.539062 4.457031.753906 6.492187.753906 2.03125 0 4.214844-.214844 6.488281-.753906 53.25-3.359375 95.542969-47.742188 95.542969-101.820312 0-54.082032-42.296875-98.464844-95.542969-101.824219-2.277344-.539063-4.460937-.753907-6.488281-.753907-2.03125 0-4.214844.214844-6.492187.753907-53.25 3.359375-95.542969 47.742187-95.542969 101.824219 0 54.078124 42.292969 98.460937 95.542969 101.820312zm-40.144532-86.820312c.984375 16.667968 3.605469 32.320312 7.644532 45.554687-15.851563-10.230469-27.429688-26.492187-31.46875-45.554687zm46.636719-85.847657c4.890625 4.773438 13.480469 23.652344 15.59375 55.847657h-31.195313c2.117188-32.191407 10.707032-51.074219 15.601563-55.847657zm15.59375 85.847657c-2.113281 32.191406-10.703125 51.070312-15.59375 55.847656-4.894531-4.777344-13.484375-23.65625-15.601563-55.847656zm23.394531 45.554687c4.042969-13.234375 6.660156-28.886719 7.644532-45.554687h23.824218c-4.039062 19.0625-15.617187 35.324218-31.46875 45.554687zm33.042969-60.535156v-.039063.019532zm-1.574219-15.019531h-23.824218c-.984376-16.671876-3.605469-32.320313-7.644532-45.554688 15.851563 10.226562 27.429688 26.492188 31.46875 45.554688zm-109.449218-45.554688c-4.039063 13.234375-6.660157 28.882812-7.644532 45.554688h-23.824218c4.039062-19.0625 15.617187-35.328126 31.46875-45.554688zm0 0"/></g></svg>