<svg viewBox="0 0 512 512" xmlns="http://www.w3.org/2000/svg" xmlns:xlink="http://www.w3.org/1999/xlink"><linearGradient id="a" gradientTransform="matrix(1 0 0 -1 0 -15870)" gradientUnits="userSpaceOnUse" x1="0" x2="512" y1="-16126" y2="-16126"><stop offset="0" stop-color="#00f38d"/><stop offset="1" stop-color="#009eff"/></linearGradient><path d="m512 256c0 141.386719-114.613281 256-256 256s-256-114.613281-256-256 114.613281-256 256-256 256 114.613281 256 256zm0 0" fill="url(#a)"/><g fill="#fff"><path d="m264.527344 275.203125h-175.527344v85.015625c0 38.554688 31.363281 69.917969 69.914062 69.917969h35.695313c38.550781 0 69.917969-31.363281 69.917969-69.917969zm-30 85.015625c0 22.011719-17.90625 39.917969-39.917969 39.917969h-35.695313c-22.007812 0-39.914062-17.90625-39.914062-39.917969v-55.015625h115.527344zm0 0"/><path d="m400.542969 228.523438h-19.320313v-41.183594h-34.324218v-12.460938c0-18.132812-11.425782-33.636718-27.457032-39.710937v-59.03125h-106.882812v59.03125c-16.027344 6.074219-27.457032 21.582031-27.457032 39.710937v12.460938h-34.320312v61.675781h30v-31.675781h170.4375v127.878906h-60.507812v30h60.507812v12.460938c0 6.867187-5.585938 12.457031-12.457031 12.457031h-59.742188c-5.109375 11.242187-12.066406 21.382812-20.464843 30h80.222656c23.40625-.011719 42.441406-19.050781 42.441406-42.457031v-39.917969h19.320312c23.414063 0 42.460938-19.046875 42.460938-42.457031v-34.320313c0-23.414063-19.046875-42.460937-42.457031-42.460937zm-157.984375-122.386719h46.882812v26.285156h-46.882812zm74.339844 81.203125h-101.796876v-12.460938c0-6.867187 5.589844-12.457031 12.457032-12.457031h76.882812c6.871094 0 12.457032 5.589844 12.457032 12.457031zm96.101562 117.964844c0 6.871093-5.589844 12.457031-12.457031 12.457031h-19.320313v-59.234375h19.320313c6.867187 0 12.457031 5.585937 12.457031 12.457031zm0 0"/></g></svg>