<svg viewBox="0 0 512 512" xmlns="http://www.w3.org/2000/svg" xmlns:xlink="http://www.w3.org/1999/xlink"><linearGradient id="a" gradientTransform="matrix(1 0 0 -1 0 -15870)" gradientUnits="userSpaceOnUse" x1="0" x2="512" y1="-16126" y2="-16126"><stop offset="0" stop-color="#00f38d"/><stop offset="1" stop-color="#009eff"/></linearGradient><path d="m512 256c0 141.386719-114.613281 256-256 256s-256-114.613281-256-256 114.613281-256 256-256 256 114.613281 256 256zm0 0" fill="url(#a)"/><g fill="#fff"><path d="m330.957031 141.207031c-22.523437 0-40.847656 18.324219-40.847656 40.847657 0 22.523437 18.324219 40.847656 40.847656 40.847656 22.523438 0 40.847657-18.324219 40.847657-40.847656 0-22.523438-18.324219-40.847657-40.847657-40.847657zm0 51.695313c-5.980469 0-10.847656-4.863282-10.847656-10.847656 0-5.980469 4.867187-10.847657 10.847656-10.847657s10.847657 4.867188 10.847657 10.847657c0 5.984374-4.867188 10.847656-10.847657 10.847656zm0 0"/><path d="m330.957031 88.242188c-51.027343 0-92.542969 41.496093-92.542969 92.5v2.371093c0 25.597657 14.289063 54.96875 42.464844 87.300781 20.019532 22.96875 39.824219 39.039063 40.65625 39.710938l9.421875 7.609375 9.425781-7.609375c.832032-.671875 20.636719-16.742188 40.652344-39.710938 28.179688-32.332031 42.464844-61.703124 42.464844-87.300781v-2.371093c0-51.003907-41.515625-92.5-92.542969-92.5zm62.542969 94.871093c0 32.34375-39.128906 74.433594-62.550781 95.574219-23.425781-21.113281-62.535157-63.148438-62.535157-95.574219v-2.375c0-34.460937 28.058594-62.496093 62.542969-62.496093s62.542969 28.035156 62.542969 62.496093zm0 0"/><path d="m393.5 386.246094-71.449219-16.382813v-39.746093h-30v40.019531l-72.101562 18.25v-246.128907l12.640625-3.046874-7.03125-29.164063-20.648438 4.980469-116.410156-27.4375v306.597656l116.484375 28.9375 102.238281-25.882812 116.277344 26.660156v-150.003906h-30zm-275-260.765625 71.449219 16.839843v246.15625l-71.449219-17.746093zm0 0"/></g></svg>