<svg viewBox="0 0 512 512" xmlns="http://www.w3.org/2000/svg" xmlns:xlink="http://www.w3.org/1999/xlink"><linearGradient id="a" gradientTransform="matrix(1 0 0 -1 0 -15870)" gradientUnits="userSpaceOnUse" x1="0" x2="512" y1="-16126" y2="-16126"><stop offset="0" stop-color="#00f38d"/><stop offset="1" stop-color="#009eff"/></linearGradient><path d="m512 256c0 141.386719-114.613281 256-256 256s-256-114.613281-256-256 114.613281-256 256-256 256 114.613281 256 256zm0 0" fill="url(#a)"/><path d="m397.1875 119.859375h-282.375c-24.15625 0-43.8125 19.65625-43.8125 43.816406v184.40625c0 24.160157 19.65625 43.8125 43.8125 43.8125h282.375c24.15625 0 43.8125-19.652343 43.8125-43.8125v-184.40625c0-24.160156-19.65625-43.816406-43.8125-43.816406zm-282.375 30h282.375c7.617188 0 13.8125 6.199219 13.8125 13.816406v76.570313h-86.972656c-7.023438-31.292969-35.007813-54.746094-68.386719-54.746094s-61.367187 23.453125-68.390625 54.746094h-86.25v-76.570313c0-7.617187 6.195312-13.816406 13.8125-13.816406zm180.933594 105.746094c0 22.117187-17.992188 40.105469-40.105469 40.105469s-40.105469-17.988282-40.105469-40.105469c0-22.113281 17.992188-40.105469 40.105469-40.105469s40.105469 17.992188 40.105469 40.105469zm101.441406 106.289062h-282.375c-7.617188 0-13.8125-6.195312-13.8125-13.8125v-77.835937h86.082031c6.753907 31.652344 34.921875 55.46875 68.558594 55.46875s61.804687-23.816406 68.554687-55.46875h86.804688v77.835937c0 7.617188-6.195312 13.8125-13.8125 13.8125zm0 0" fill="#fff"/></svg>