<svg viewBox="0 0 512 512" xmlns="http://www.w3.org/2000/svg" xmlns:xlink="http://www.w3.org/1999/xlink"><linearGradient id="a" gradientTransform="matrix(1 0 0 -1 0 -15870)" gradientUnits="userSpaceOnUse" x1="0" x2="512" y1="-16126" y2="-16126"><stop offset="0" stop-color="#00f38d"/><stop offset="1" stop-color="#009eff"/></linearGradient><path d="m512 256c0 141.386719-114.613281 256-256 256s-256-114.613281-256-256 114.613281-256 256-256 256 114.613281 256 256zm0 0" fill="url(#a)"/><path d="m423.5 142.269531c0-29.648437-24.121094-53.769531-53.769531-53.769531-29.652344 0-53.773438 24.121094-53.773438 53.769531h30c0-13.105469 10.664063-23.769531 23.773438-23.769531 13.105469 0 23.769531 10.664062 23.769531 23.769531v144.566407c-11.957031-6.40625-27.109375-9.648438-45.214844-9.648438-2.617187 0-5.152344.042969-7.636718.125v-.125h-169.296876v.125c-2.484374-.082031-5.019531-.125-7.636718-.125-18.105469 0-33.257813 3.242188-45.214844 9.648438v-144.566407c0-13.105469 10.664062-23.769531 23.769531-23.769531 13.109375 0 23.773438 10.664062 23.773438 23.769531h30c0-29.648437-24.121094-53.769531-53.773438-53.769531-29.648437 0-53.769531 24.121094-53.769531 53.769531v191.273438h.269531c-.167969 2.0625-.269531 4.15625-.269531 6.304687 0 52.382813 28.117188 83.652344 75.214844 83.652344 21.878906 0 43.234375-11.050781 60.128906-31.117188 14.960938-17.773437 23.894531-40.027343 23.894531-59.53125 0-9.679687-2.164062-18.292968-6.382812-25.664062h29.289062c-4.21875 7.371094-6.382812 15.984375-6.382812 25.664062 0 19.503907 8.933593 41.757813 23.894531 59.53125 16.894531 20.066407 38.25 31.117188 60.128906 31.117188 47.097656 0 75.214844-31.269531 75.214844-83.652344 0-1.921875-.089844-3.804687-.222656-5.660156h.222656zm-103.933594 239.289063c-3.589844-3.078125-6.90625-6.59375-9.875-10.378906l61.277344-61.277344c5.898438 1.699218 10.253906 4.074218 13.46875 6.785156zm-25.304687-48.707032c0-6.71875 0-21.332031 36.210937-24.878906l-34.914062 34.914063c-.839844-3.511719-1.296875-6.898438-1.296875-10.035157zm-159.296875 52.378907c-3.753906-2.882813-6.859375-6.523438-9.320313-10.9375l65.0625-65.058594c6.644531 1.210937 11.65625 2.886719 15.4375 4.816406zm14.40625-77.089844-30.871094 30.871094c.035156-8.320313 1.050781-26.515625 30.871094-30.871094zm20.265625 84.839844 45.511719-45.507813c-6.464844 19.855469-24.355469 41.921875-45.511719 45.507813zm180.449219.488281 42.917968-42.921875c-2.714844 28.222656-16.832031 42.304687-42.917968 42.921875zm0 0" fill="#fff"/></svg>