<svg viewBox="0 0 512 512" xmlns="http://www.w3.org/2000/svg" xmlns:xlink="http://www.w3.org/1999/xlink"><linearGradient id="a" gradientTransform="matrix(1 0 0 -1 0 -15870)" gradientUnits="userSpaceOnUse" x1="0" x2="512" y1="-16126" y2="-16126"><stop offset="0" stop-color="#00f38d"/><stop offset="1" stop-color="#009eff"/></linearGradient><path d="m512 256c0 141.386719-114.613281 256-256 256s-256-114.613281-256-256 114.613281-256 256-256 256 114.613281 256 256zm0 0" fill="url(#a)"/><g fill="#fff"><path d="m298.210938 302.34375 123.632812-11.105469-2.019531-15.484375c-.1875-1.429687-4.777344-35.566406-22.425781-78.65625-23.507813-57.414062-59.339844-103.585937-103.625-133.523437l-3.804688-2.574219h-21.757812v271.054688l-175.382813 14.183593 3.550781 16.695313c7.890625 37.085937 28.25 61.675781 29.113282 62.703125l4.496093 5.359375h217.328125l3.652344-2.289063c1.910156-1.195312 46.972656-29.933593 67.976562-84.386719l1.003907-2.605468v-21.933594l-121.734375 9.84375v-27.28125zm0-197.515625c36.507812 31.980469 58.550781 72.40625 71.101562 102.847656 9.472656 22.96875 14.925781 43.390625 17.847656 56.554688l-88.949218 7.992187zm40.105468 296.171875h-193.714844c-3.746093-5.585938-9.492187-15.238281-14.070312-27.714844l251.046875-20.304687c-15.039063 25.832031-35.398437 42.273437-43.261719 48.019531zm0 0"/><path d="m242.023438 73.378906-25.863282 27.175782c-2.726562 2.859374-67.328125 71.527343-118.945312 194.710937l-9.554688 22.800781 154.363282-12.886718zm-30 204.203125-77.125 6.4375c27.097656-59.152343 56.65625-103.640625 77.125-131.035156zm0 0"/></g></svg>