<svg viewBox="0 0 512 512" xmlns="http://www.w3.org/2000/svg" xmlns:xlink="http://www.w3.org/1999/xlink"><linearGradient id="a" gradientTransform="matrix(1 0 0 -1 0 -14446)" gradientUnits="userSpaceOnUse" x1="0" x2="512" y1="-14702" y2="-14702"><stop offset="0" stop-color="#00f38d"/><stop offset="1" stop-color="#009eff"/></linearGradient><path d="m512 256c0 141.386719-114.613281 256-256 256s-256-114.613281-256-256 114.613281-256 256-256 256 114.613281 256 256zm0 0" fill="url(#a)"/><g fill="#fff"><path d="m221.558594 144.667969-14.917969 93.917969-19.949219 19.832031-15.039062-15.039063-21.210938 21.214844 14.972656 14.972656-64.148437 63.761719c-18.65625 18.65625-18.65625 49.011719 0 67.664063 9.332031 9.332031 21.589844 13.996093 33.84375 13.996093 12.242187 0 24.484375-4.65625 33.789063-13.960937l105.382812-104.746094 93.964844-14.925781 46.238281-46.238281-146.6875-146.6875zm100.175781 123.699219-49.394531 7.84375-35.640625-35.636719 7.847656-49.394531zm-174.015625 121.414062c-6.960938 6.957031-18.28125 6.957031-25.242188 0-6.957031-6.960938-6.957031-18.28125-.03125-25.207031l98.210938-97.621094 25.238281 25.242187zm208.765625-129.089844-104.261719-104.261718 15.574219-15.574219 104.261719 104.261719zm0 0"/><path d="m427.761719 106.695312-59.453125 58.46875-21.039063-21.390624 59.457031-58.46875zm0 0"/><path d="m404.03125 200.382812-21.511719-20.914062 22.992188-23.652344 21.511719 20.914063zm0 0"/><path d="m335.878906 86.199219 21.511719 20.910156-22.992187 23.652344-21.511719-20.914063zm0 0"/></g></svg>