<svg viewBox="0 0 512 512" xmlns="http://www.w3.org/2000/svg" xmlns:xlink="http://www.w3.org/1999/xlink"><linearGradient id="a" gradientTransform="matrix(1 0 0 -1 0 -14446)" gradientUnits="userSpaceOnUse" x1="0" x2="512" y1="-14702" y2="-14702"><stop offset="0" stop-color="#00f38d"/><stop offset="1" stop-color="#009eff"/></linearGradient><path d="m512 256c0 141.386719-114.613281 256-256 256s-256-114.613281-256-256 114.613281-256 256-256 256 114.613281 256 256zm0 0" fill="url(#a)"/><path d="m376.144531 326.871094h34.855469v.128906c0 38.597656-31.402344 70-70 70s-70-31.402344-70-70v-82.246094h57.035156v-30h-57.035156v-28.664062c28.867188-6.800782 50.425781-32.753906 50.425781-63.667969 0-36.074219-29.351562-65.425781-65.425781-65.425781s-65.425781 29.351562-65.425781 65.425781c0 30.914063 21.558593 56.867187 50.425781 63.667969v28.664062h-57.035156v30h57.035156v82.246094c0 38.597656-31.402344 70-70 70s-70-31.402344-70-70v-.128906h34.855469l-64.855469-88.015625v88.144531c0 55.140625 44.859375 100 100 100 35.847656 0 67.34375-18.964844 85-47.382812 17.65625 28.417968 49.152344 47.382812 85 47.382812 55.140625 0 100-44.859375 100-100v-88.144531zm-155.570312-204.449219c0-19.53125 15.894531-35.421875 35.425781-35.421875s35.425781 15.890625 35.425781 35.421875c0 19.535156-15.894531 35.425781-35.425781 35.425781s-35.425781-15.890625-35.425781-35.425781zm0 0" fill="#fff"/></svg>