<svg viewBox="0 0 512 512" xmlns="http://www.w3.org/2000/svg" xmlns:xlink="http://www.w3.org/1999/xlink"><linearGradient id="a" gradientTransform="matrix(1 0 0 -1 0 -14446)" gradientUnits="userSpaceOnUse" x1="0" x2="512" y1="-14702" y2="-14702"><stop offset="0" stop-color="#00f38d"/><stop offset="1" stop-color="#009eff"/></linearGradient><path d="m512 256c0 141.386719-114.613281 256-256 256s-256-114.613281-256-256 114.613281-256 256-256 256 114.613281 256 256zm0 0" fill="url(#a)"/><g fill="#fff"><path d="m308.519531 66h-105.039062c-46.378907 0-84.105469 37.730469-84.105469 84.105469v161.015625c0 23.511718 19.128906 42.640625 42.640625 42.640625h16.796875l-52.070312 57.132812 22.171874 20.207031 26.402344-28.964843h162.027344l26.085938 28.621093 22.171874-20.207031-51.753906-56.789062h16.136719c23.511719 0 42.640625-19.128907 42.640625-42.640625v-161.015625c0-46.375-37.730469-84.105469-84.105469-84.105469zm-159.144531 97.925781c0-6.972656 5.671875-12.640625 12.640625-12.640625h79.675781v61.21875h-79.675781c-6.96875 0-12.640625-5.671875-12.640625-12.644531zm122.316406-12.640625h78.292969c6.96875 0 12.640625 5.667969 12.640625 12.640625v35.933594c0 6.972656-5.671875 12.644531-12.640625 12.644531h-78.292969zm-68.210937-55.285156h105.039062c19.34375 0 36.339844 10.210938 45.90625 25.515625-1.460937-.152344-2.941406-.230469-4.441406-.230469h-187.96875c-1.5 0-2.980469.078125-4.441406.230469 9.566406-15.304687 26.5625-25.515625 45.90625-25.515625zm106.523437 276.136719h-107.347656l16.746094-18.375h73.855468zm39.980469-48.375h-187.96875c-6.96875 0-12.640625-5.667969-12.640625-12.640625v-70.53125c3.996094 1.242187 8.242188 1.914062 12.640625 1.914062h187.96875c4.398437 0 8.644531-.671875 12.644531-1.914062v70.53125c-.003906 6.972656-5.675781 12.640625-12.644531 12.640625zm0 0"/><path d="m203.480469 283.480469c0 7.632812-6.1875 13.820312-13.820313 13.820312-7.632812 0-13.820312-6.1875-13.820312-13.820312 0-7.632813 6.1875-13.824219 13.820312-13.824219 7.632813 0 13.820313 6.191406 13.820313 13.824219zm0 0"/><path d="m336.160156 283.480469c0 7.632812-6.1875 13.820312-13.820312 13.820312-7.632813 0-13.820313-6.1875-13.820313-13.820312 0-7.632813 6.1875-13.824219 13.820313-13.824219 7.632812 0 13.820312 6.191406 13.820312 13.824219zm0 0"/></g></svg>