<svg viewBox="0 0 512 512" xmlns="http://www.w3.org/2000/svg" xmlns:xlink="http://www.w3.org/1999/xlink"><linearGradient id="a" gradientTransform="matrix(1 0 0 -1 0 -14446)" gradientUnits="userSpaceOnUse" x1="0" x2="512" y1="-14702" y2="-14702"><stop offset="0" stop-color="#00f38d"/><stop offset="1" stop-color="#009eff"/></linearGradient><path d="m512 256c0 141.386719-114.613281 256-256 256s-256-114.613281-256-256 114.613281-256 256-256 256 114.613281 256 256zm0 0" fill="url(#a)"/><g fill="#fff"><path d="m176.496094 298.085938c24.417968 24.417968 56.492187 36.625 88.566406 36.625s64.148438-12.207032 88.566406-36.625c48.835938-48.835938 48.835938-128.296876 0-177.132813-48.835937-48.835937-128.296875-48.835937-177.132812 0-48.835938 48.835937-48.835938 128.296875 0 177.132813zm-1.339844-119.992188c.386719.871094.78125 1.75 1.203125 2.648438 8.464844 18.101562 22.269531 37.898437 39.472656 56.796874l-27.886719 27.886719c-18.578124-25.597656-22.84375-58.421875-12.789062-87.332031zm22.542969-35.917969c.367187-.277343 1.539062-.617187 3.625-.617187 4.109375 0 11.761719 1.332031 23.738281 7.140625 14.742188 7.144531 31.011719 18.589843 46.789062 32.820312l-34.792968 34.789063c-14.226563-15.777344-25.667969-32.042969-32.816406-46.785156-8.75-18.046876-7.347657-26.273438-6.550782-27.335938.003906-.003906.007813-.007812.007813-.011719zm134.734375 134.679688c-.003906.003906-.003906.003906-.007813.007812-1.082031.820313-9.308593 2.230469-27.367187-6.523437-14.742188-7.148438-31.007813-18.589844-46.785156-32.816406l34.792968-34.792969c14.226563 15.777343 25.671875 32.042969 32.816406 46.789062 8.753907 18.050781 7.347657 26.277344 6.550782 27.335938zm-123.273438 9.78125 27.886719-27.886719c18.898437 17.203125 38.695313 31.011719 56.792969 39.476562.890625.414063 1.773437.816407 2.644531 1.203126-28.914063 10.050781-61.730469 5.78125-87.324219-12.792969zm145.808594-45.6875c-.386719-.875-.78125-1.753907-1.199219-2.652344-8.464843-18.097656-22.273437-37.894531-39.476562-56.792969l27.886719-27.886718c18.578124 25.59375 22.847656 58.417968 12.789062 87.332031zm-34-108.546875-27.886719 27.886718c-18.898437-17.203124-38.695312-31.011718-56.796875-39.476562-.894531-.417969-1.773437-.8125-2.648437-1.199219 28.914062-10.054687 61.734375-5.785156 87.332031 12.789063zm0 0"/><path d="m280.773438 391.707031c42.730468-3.625 82.417968-22 113.09375-52.675781l-21.214844-21.210938c-28.738282 28.738282-66.949219 44.566407-107.589844 44.566407s-78.851562-15.828125-107.589844-44.566407c-57.898437-57.898437-59.082031-153.214843-2.640625-212.476562l-21.722656-20.6875c-32.914063 34.554688-50.738281 79.894531-50.191406 127.671875.550781 47.859375 19.492187 92.855469 53.34375 126.703125 31.011719 31.015625 71.242187 49.460938 114.511719 52.796875v28.171875h-56.839844v30h142.257812v-30h-55.417968zm0 0"/></g></svg>