<svg viewBox="0 0 512 512" xmlns="http://www.w3.org/2000/svg" xmlns:xlink="http://www.w3.org/1999/xlink"><linearGradient id="a" gradientTransform="matrix(1 0 0 -1 0 -14446)" gradientUnits="userSpaceOnUse" x1="0" x2="512" y1="-14702" y2="-14702"><stop offset="0" stop-color="#00f38d"/><stop offset="1" stop-color="#009eff"/></linearGradient><path d="m512 256c0 141.386719-114.613281 256-256 256s-256-114.613281-256-256 114.613281-256 256-256 256 114.613281 256 256zm0 0" fill="url(#a)"/><path d="m345.078125 234.875h-78.222656v-40.609375c16.003906-6.074219 27.417969-21.5625 27.417969-39.671875 0-.25-.015626-.492188-.019532-.742188l125.429688-41.21875-9.367188-28.5-127.214844 41.808594c-7.761718-8.457031-18.894531-13.765625-31.246093-13.765625-21.863281 0-39.910157 16.625-42.175781 37.894531l-139.363282 45.796876 9.367188 28.5 137.609375-45.222657c4.84375 6.796875 11.636719 12.113281 19.5625 15.117188v40.613281h-78.226563c-23.390625 0-42.417968 19.027344-42.417968 42.417969v117.902343c0 23.390626 19.027343 42.417969 42.417968 42.417969h186.449219c23.390625 0 42.421875-19.027343 42.421875-42.417969v-117.902343c0-23.386719-19.03125-42.417969-42.421875-42.417969zm-93.222656-92.699219c6.847656 0 12.417969 5.570313 12.417969 12.417969s-5.570313 12.417969-12.417969 12.417969c-6.847657 0-12.421875-5.570313-12.421875-12.417969s5.574218-12.417969 12.421875-12.417969zm105.644531 135.117188v39.839843h-52.257812v-52.257812h39.839843c6.847657 0 12.417969 5.570312 12.417969 12.417969zm-129.03125 39.839843v-52.257812h46.773438v52.257812zm-69.839844-52.257812h39.839844v52.257812h-52.257812v-39.839843c0-6.847657 5.570312-12.417969 12.417968-12.417969zm186.449219 142.742188h-186.449219c-6.847656 0-12.417968-5.570313-12.417968-12.417969v-48.066407h211.289062v48.066407c0 6.847656-5.570312 12.417969-12.421875 12.417969zm0 0" fill="#fff"/></svg>