<svg viewBox="0 0 512 512" xmlns="http://www.w3.org/2000/svg" xmlns:xlink="http://www.w3.org/1999/xlink"><linearGradient id="a" gradientTransform="matrix(1 0 0 -1 0 -14446)" gradientUnits="userSpaceOnUse" x1="0" x2="512" y1="-14702" y2="-14702"><stop offset="0" stop-color="#00f38d"/><stop offset="1" stop-color="#009eff"/></linearGradient><path d="m512 256c0 141.386719-114.613281 256-256 256s-256-114.613281-256-256 114.613281-256 256-256 256 114.613281 256 256zm0 0" fill="url(#a)"/><path d="m380.132812 319.761719c-.226562 0-.445312.015625-.667968.015625v-.015625h-46.707032c23.121094-20.886719 37.679688-51.121094 37.679688-84.703125 0-44.671875-25.488281-63.972656-47.976562-81.003906-21.511719-16.296876-40.09375-30.367188-40.09375-67.554688v-15h-21.816407l-4.183593 2.648438c-42.378907 26.8125-113.46875 83.371093-113.46875 160.910156 0 33.582031 14.558593 63.816406 37.679687 84.703125h-48.707031c-26.671875 0-48.371094 21.699219-48.371094 48.371093 0 26.671876 21.699219 48.367188 48.371094 48.367188h247.59375v-.015625c.222656.003906.445312.015625.667968.015625 26.667969 0 48.367188-21.695312 48.367188-48.367188 0-26.671874-21.699219-48.371093-48.367188-48.371093zm-66.738281 66.738281c-10.128906 0-18.371093-8.242188-18.371093-18.371094s8.242187-18.367187 18.371093-18.367187c10.128907 0 18.367188 8.238281 18.367188 18.367187s-8.238281 18.371094-18.367188 18.371094zm-58.085937-67.441406c-13.917969-.707032-25.019532-12.199219-25.019532-26.230469 0-11.542969 10.796876-29.449219 20.828126-42.980469 5.136718 8.429688 11.851562 14.816406 17.480468 20.171875 9.492188 9.027344 14.445313 14.140625 14.445313 22.808594 0 14.03125-11.101563 25.527344-25.015625 26.234375-.453125.003906-.90625.035156-1.359375.035156-.457031 0-.90625-.03125-1.359375-.039062zm-82.414063-84c0-53.980469 45.527344-97.523438 81.964844-123.722656 7.480469 34.8125 30.40625 52.179687 49.488281 66.632812 20.164063 15.269531 36.089844 27.332031 36.089844 57.085938 0 24.675781-10.65625 46.894531-27.589844 62.285156.117188-1.492188.195313-2.992188.195313-4.511719 0-21.941406-13.179688-34.476563-23.769531-44.550781-10.390626-9.878906-16.269532-16.035156-16.269532-27.636719v-15h-21.714844l-4.148437 3.414063c-5.1875 4.265624-16.59375 17.421874-25.976563 31.242187-13.851562 20.410156-20.875 38.082031-20.875 52.53125 0 1.519531.078126 3.019531.195313 4.511719-16.933594-15.390625-27.589844-37.609375-27.589844-62.28125zm-59.394531 133.070312c0-10.125 8.238281-18.367187 18.367188-18.367187h136.792968c-2.335937 5.667969-3.632812 11.867187-3.632812 18.367187 0 6.503906 1.296875 12.703125 3.632812 18.371094h-136.792968c-10.128907 0-18.367188-8.242188-18.367188-18.371094zm266.632812 18.371094c-10.128906 0-18.371093-8.242188-18.371093-18.371094s8.242187-18.367187 18.371093-18.367187c10.128907 0 18.367188 8.238281 18.367188 18.367187s-8.238281 18.371094-18.367188 18.371094zm0 0" fill="#fff"/></svg>