<svg viewBox="0 0 512 512" xmlns="http://www.w3.org/2000/svg" xmlns:xlink="http://www.w3.org/1999/xlink"><linearGradient id="a" gradientTransform="matrix(1 0 0 -1 0 -14446)" gradientUnits="userSpaceOnUse" x1="0" x2="512" y1="-14702" y2="-14702"><stop offset="0" stop-color="#00f38d"/><stop offset="1" stop-color="#009eff"/></linearGradient><path d="m512 256c0 141.386719-114.613281 256-256 256s-256-114.613281-256-256 114.613281-256 256-256 256 114.613281 256 256zm0 0" fill="url(#a)"/><g fill="#fff"><path d="m409.535156 355.804688v-200.609376c0-23.515624-19.128906-42.644531-42.640625-42.644531h-187.96875c-53.996093 0-97.925781 43.929688-97.925781 97.929688v132.679687c0 23.515625 19.128906 42.644532 42.640625 42.644532h10.539063c6.082031 16.132812 21.675781 27.640624 39.910156 27.640624s33.828125-11.507812 39.910156-27.640624h222v-30zm-235.445312 27.640624c-6.972656 0-12.644532-5.671874-12.644532-12.640624 0-6.972657 5.671876-12.644532 12.644532-12.644532 6.96875 0 12.640625 5.671875 12.640625 12.644532 0 6.96875-5.667969 12.640624-12.640625 12.640624zm104.144531-27.640624v-135.855469h46.019531v135.855469zm-30-165.855469v165.855469h-34.234375c-6.082031-16.132813-21.675781-27.644532-39.910156-27.644532s-33.828125 11.511719-39.910156 27.644532h-10.535157c-6.972656 0-12.644531-5.671876-12.644531-12.644532v-132.679687c0-37.457031 30.472656-67.929688 67.929688-67.929688h187.964843c6.972657 0 12.644531 5.671875 12.644531 12.644531v200.609376h-25.285156v-165.855469zm0 0"/><path d="m136.285156 278.691406h86.667969v-88.742187h-86.667969zm30-58.742187h26.667969v28.742187h-26.667969zm0 0"/></g></svg>