<svg viewBox="0 0 512 512" xmlns="http://www.w3.org/2000/svg" xmlns:xlink="http://www.w3.org/1999/xlink"><linearGradient id="a" gradientTransform="matrix(1 0 0 -1 0 -13022)" gradientUnits="userSpaceOnUse" x1="0" x2="512" y1="-13278" y2="-13278"><stop offset="0" stop-color="#00f38d"/><stop offset="1" stop-color="#009eff"/></linearGradient><path d="m512 256c0 141.386719-114.613281 256-256 256s-256-114.613281-256-256 114.613281-256 256-256 256 114.613281 256 256zm0 0" fill="url(#a)"/><g fill="#fff"><path d="m281.3125 227.035156h30v28.804688h-30zm0 0"/><path d="m129.234375 226.4375h123.867187v30h-123.867187zm0 0"/><path d="m129.234375 276.847656h80.65625v30h-80.65625zm0 0"/><path d="m281.3125 277.445312h30v28.804688h-30zm0 0"/><path d="m281.3125 327.855469h30v28.804687h-30zm0 0"/><path d="m416.382812 166.09375-10.011718-52.054688c-2.207032-11.492187-8.761719-21.433593-18.445313-27.996093-9.6875-6.5625-21.351562-8.957031-32.84375-6.75l-.355469.066406-70.753906 17.210937c-10.359375 2.085938-19.425781 7.722657-25.863281 15.996094-8.839844-5.15625-19.5-7.277344-30.320313-5.195312l-121.425781 26.015625-.511719.117187c-21.863281 5.484375-34.914062 23.53125-34.914062 48.28125l.089844 169.726563v26.753906c0 24.152344 19.652344 43.804687 43.808594 43.804687h152.671874c11.019532 0 21.097657-4.101562 28.804688-10.84375 7.707031 6.742188 17.785156 10.84375 28.804688 10.84375h72.015624c24.152344 0 43.804688-19.652343 43.804688-43.804687v-172.835937c0-17.25-10.027344-32.195313-24.554688-39.335938zm-182.800781-29.285156c7.425781-1.363282 14.609375 3.539062 16.035157 10.972656l29.460937-5.664062c-.695313-3.621094.0625-7.296876 2.128906-10.351563 2.066407-3.050781 5.199219-5.117187 8.824219-5.8125l.355469-.070313 70.65625-17.183593c3.527343-.605469 7.085937.167969 10.054687 2.179687 3.054688 2.066406 5.117188 5.199219 5.8125 8.824219l8.0625 41.921875h-59.859375c-11.019531 0-21.097656 4.101562-28.804687 10.84375-7.707032-6.742188-17.785156-10.84375-28.804688-10.84375h-149.746094zm177.355469 241.457031c0 7.613281-6.195312 13.804687-13.804688 13.804687h-72.015624c-7.613282 0-13.808594-6.191406-13.808594-13.804687h-30c0 7.613281-6.191406 13.804687-13.804688 13.804687h-152.667968c-7.613282 0-13.808594-6.191406-13.808594-13.804687v-172.835937c0-7.613282 6.195312-13.804688 13.808594-13.804688h152.667968c7.613282 0 13.808594 6.191406 13.808594 13.804688h30c0-7.613282 6.191406-13.804688 13.804688-13.804688h72.015624c7.609376 0 13.804688 6.191406 13.804688 13.804688zm0 0"/></g></svg>