<svg viewBox="0 0 512 512" xmlns="http://www.w3.org/2000/svg" xmlns:xlink="http://www.w3.org/1999/xlink"><linearGradient id="a" gradientTransform="matrix(1 0 0 -1 0 -13022)" gradientUnits="userSpaceOnUse" x1="0" x2="512" y1="-13278" y2="-13278"><stop offset="0" stop-color="#00f38d"/><stop offset="1" stop-color="#009eff"/></linearGradient><path d="m512 256c0 141.386719-114.613281 256-256 256s-256-114.613281-256-256 114.613281-256 256-256 256 114.613281 256 256zm0 0" fill="url(#a)"/><path d="m379.945312 313.894531-6.683593 6.683594-2.78125-25.378906 23.621093-23.621094-21.214843-21.214844-6.597657 6.597657-3.90625-35.691407 30.261719-30.335937c15.761719-15.761719 41.769531-66.855469 18.515625-90.109375-23.253906-23.253907-74.351562 2.75-90.140625 18.539062l-30.09375 30.265625-35.898437-3.929687 6.597656-6.597657-21.214844-21.214843-23.621094 23.621093-25.378906-2.777343 6.6875-6.6875-21.214844-21.214844-23.707031 23.710937-37.992187-4.160156-58.648438 53.957032 147.882813 52.292968-65.613281 65.984375-49.605469-.0625-32.355469 33.972657 76.644531 39.613281 45.199219 79.308593 32.164062-33.769531v-48.523437l64.75-64.898438 52.054688 147.203125 53.953125-58.648437-4.160156-37.992188 23.710937-23.710937zm-266.421874-141.226562 11.941406-10.984375 138.398437 15.164062-36.039062 36.242188zm67.328124 188.078125v37.90625l-25.695312-45.085938-40.597656-20.984375 36.707031.050781 190.996094-192.082031c4.332031-4.328125 14.570312-11.011719 26.828125-15.453125 13.019531-4.71875 19.460937-3.683594 20.832031-3.035156.648437 1.375 1.683594 7.816406-3.035156 20.832031-4.441407 12.257813-11.125 22.496094-15.464844 26.835938zm158.46875 37.71875-40.226562-113.761719 36.09375-36.175781 15.117188 138zm0 0" fill="#fff"/></svg>