<svg viewBox="0 0 512 512" xmlns="http://www.w3.org/2000/svg" xmlns:xlink="http://www.w3.org/1999/xlink"><linearGradient id="a" gradientTransform="matrix(1 0 0 -1 0 -13022)" gradientUnits="userSpaceOnUse" x1="0" x2="512" y1="-13278" y2="-13278"><stop offset="0" stop-color="#00f38d"/><stop offset="1" stop-color="#009eff"/></linearGradient><path d="m512 256c0 141.386719-114.613281 256-256 256s-256-114.613281-256-256 114.613281-256 256-256 256 114.613281 256 256zm0 0" fill="url(#a)"/><g fill="#fff"><path d="m374.273438 216.605469h-25.28125v-11.980469c0-23.511719-19.128907-42.640625-42.644532-42.640625h-178.984375c-23.511719 0-42.640625 19.128906-42.640625 42.640625v50.226562c0 20.503907 9.128906 39.683594 25.042969 52.621094 15.847656 12.875 36.375 17.875 56.320313 13.707032 25.769531-5.378907 35.851562-16.445313 42.523437-23.769532 4.328125-4.753906 4.714844-5.175781 8.246094-5.195312 3.53125.019531 3.917969.441406 8.246093 5.195312 6.671876 7.320313 16.757813 18.390625 42.527344 23.769532 4.605469.960937 9.242188 1.4375 13.851563 1.4375 15.328125 0 30.28125-5.246094 42.464843-15.144532 15.914063-12.9375 25.042969-32.117187 25.042969-52.621094v-8.246093h25.285157v85.332031c0 41.941406-34.121094 76.0625-76.058594 76.0625-23.265625 0-45.050782-10.78125-59.3125-28.476562 12.523437-7.4375 20.941406-21.09375 20.941406-36.6875h-30c0 6.972656-5.671875 12.644531-12.644531 12.644531-6.972657 0-12.640625-5.671875-12.640625-12.644531h-30c0 19.546874 13.21875 36.046874 31.183594 41.066406 18.660156 33.105468 54.132812 54.097656 92.472656 54.097656 58.480468 0 106.0625-47.578125 106.0625-106.0625v-176.375h-30v61.042969zm-55.28125 38.246093c0 11.429688-5.09375 22.125-13.96875 29.339844-8.804688 7.15625-20.203126 9.929688-31.261719 7.621094-16.265625-3.394531-21.230469-8.839844-26.484375-14.609375-5.683594-6.238281-13.441406-14.753906-30.074219-14.984375l-.691406-.003906v.003906c-16.632813.230469-24.390625 8.746094-30.078125 14.984375-5.253906 5.769531-10.214844 11.214844-26.480469 14.609375-11.066406 2.308594-22.460937-.464844-31.265625-7.621094-8.875-7.214844-13.964844-17.910156-13.964844-29.339844v-50.226562c0-6.96875 5.671875-12.640625 12.644532-12.640625h178.980468c6.972656 0 12.644532 5.671875 12.644532 12.640625zm0 0"/><path d="m374.273438 83h30v51.828125h-30zm0 0"/></g></svg>