<svg viewBox="0 0 512 512" xmlns="http://www.w3.org/2000/svg" xmlns:xlink="http://www.w3.org/1999/xlink"><linearGradient id="a" gradientTransform="matrix(1 0 0 -1 0 -13022)" gradientUnits="userSpaceOnUse" x1="0" x2="512" y1="-13278" y2="-13278"><stop offset="0" stop-color="#00f38d"/><stop offset="1" stop-color="#009eff"/></linearGradient><path d="m512 256c0 141.386719-114.613281 256-256 256s-256-114.613281-256-256 114.613281-256 256-256 256 114.613281 256 256zm0 0" fill="url(#a)"/><path d="m328.195312 152.242188h-.042968v-45.160157c0-24.859375-20.222656-45.082031-45.078125-45.082031h-54.148438c-24.855469 0-45.078125 20.222656-45.078125 45.082031v45.160157h-.042968c-33.152344 0-60.121094 26.972656-60.121094 60.125v159.429687c0 19.601563 12.578125 36.308594 30.082031 42.507813v32.695312h30v-30.121094h144.46875v30.121094h30v-32.695312c17.503906-6.199219 30.082031-22.90625 30.082031-42.507813v-159.429687c0-33.152344-26.96875-60.125-60.121094-60.125zm-114.347656-45.160157c0-8.316406 6.761719-15.082031 15.078125-15.082031h54.148438c8.316406 0 15.078125 6.765625 15.078125 15.082031v45.160157h-84.308594v-45.160157zm84.304688 279.796875h-84.304688l.039063-114.390625 84.265625.039063zm60.164062-15.082031c0 8.316406-6.765625 15.082031-15.082031 15.082031h-15.082031v-114.351562c0-16.5625-13.472656-30.039063-30.039063-30.039063h-84.226562c-16.566407 0-30.042969 13.476563-30.042969 30.039063v114.351562h-15.082031c-8.316407 0-15.082031-6.765625-15.082031-15.082031v-159.429687c0-16.609376 13.515624-30.125 30.125-30.125h144.390624c16.609376 0 30.121094 13.515624 30.121094 30.125zm0 0" fill="#fff"/></svg>