<svg viewBox="0 0 512 512" xmlns="http://www.w3.org/2000/svg" xmlns:xlink="http://www.w3.org/1999/xlink"><linearGradient id="a" gradientTransform="matrix(1 0 0 -1 0 -13022)" gradientUnits="userSpaceOnUse" x1="0" x2="512" y1="-13278" y2="-13278"><stop offset="0" stop-color="#00f38d"/><stop offset="1" stop-color="#009eff"/></linearGradient><path d="m512 256c0 141.386719-114.613281 256-256 256s-256-114.613281-256-256 114.613281-256 256-256 256 114.613281 256 256zm0 0" fill="url(#a)"/><path d="m396.09375 251.976562 52.601562-52.601562-52.601562-52.601562h-125.074219v-85.773438h-30v48.171875h-124.96875l-52.601562 52.601563 37.601562 37.601562-37.601562 37.601562 52.601562 52.601563h124.96875v126.421875h-60.457031v30h150.40625v-30h-59.953125v-164.023438zm-12.429688-75.203124 22.605469 22.601562-22.605469 22.601562h-112.644531v-45.203124zm-255.1875-37.601563h112.542969v45.203125h-112.542969l-22.601562-22.601562zm0 120.40625-22.601562-22.601563 22.601562-22.605468h112.542969v45.203125h-112.542969zm0 0" fill="#fff"/></svg>