<svg viewBox="0 0 512 512" xmlns="http://www.w3.org/2000/svg" xmlns:xlink="http://www.w3.org/1999/xlink"><linearGradient id="a" gradientTransform="matrix(1 0 0 -1 0 -13022)" gradientUnits="userSpaceOnUse" x1="0" x2="512" y1="-13278" y2="-13278"><stop offset="0" stop-color="#00f38d"/><stop offset="1" stop-color="#009eff"/></linearGradient><path d="m512 256c0 141.386719-114.613281 256-256 256s-256-114.613281-256-256 114.613281-256 256-256 256 114.613281 256 256zm0 0" fill="url(#a)"/><path d="m310.601562 227.03125 13.121094-17.929688 13.121094 17.929688h97.246094v-47.339844l-2.679688-3.855468c-.644531-.933594-16.210937-23.125-45.425781-45.21875-34.585937-26.15625-74.0625-41.304688-114.984375-44.289063v-26.328125h-30v26.328125c-40.921875 2.984375-80.398438 18.132813-114.980469 44.289063-29.21875 22.09375-44.78125 44.285156-45.429687 45.21875l-2.679688 3.855468v47.339844h100.011719l13.316406-18.199219 13.761719 18.199219h36v131.582031c-15.253906 2.605469-26.613281 8.847657-36.902344 14.523438-11.535156 6.367187-21.496094 11.863281-36.550781 11.863281-14.117187 0-21.847656-4.5625-32.546875-10.875-12.660156-7.472656-28.417969-16.769531-55.910156-16.769531v30c19.300781 0 29.199218 5.84375 40.664062 12.605469 11.945313 7.050781 25.484375 15.039062 47.792969 15.039062 22.78125 0 37.796875-8.285156 51.042969-15.59375 11.71875-6.464844 21.835937-12.050781 37.410156-12.050781 19.300781 0 29.203125 5.84375 40.664062 12.605469 11.945313 7.050781 25.484376 15.039062 47.792969 15.039062 22.78125 0 37.796875-8.285156 51.046875-15.59375 11.714844-6.464844 21.835938-12.050781 37.410156-12.050781v-30c-23.300781 0-38.496093 8.386719-51.902343 15.78125-11.535157 6.367187-21.5 11.863281-36.554688 11.863281-14.113281 0-21.84375-4.5625-32.546875-10.875-10.152344-5.992188-22.308594-13.15625-40.90625-15.757812v-131.335938zm93.488282-37.597656v7.597656h-52.023438l-18.964844-25.914062c-11.25-19.035157-25.34375-36.878907-37.703124-50.984376 25.246093 5.707032 49.234374 17 71.660156 33.789063 19.21875 14.386719 31.832031 28.984375 37.03125 35.511719zm-241.390625 7.597656h-54.789063v-7.609375c10.097656-12.703125 48.433594-56.082031 110.34375-69.59375-12.378906 14.675781-26.605468 33.273437-37.332031 52.296875zm46.601562-14.054688c14.300781-24.085937 34.832031-47.710937 47.019531-60.871093 12.488282 12.769531 33.621094 35.957031 49.105469 61.195312l-10.042969 13.730469h-75.457031zm0 0" fill="#fff"/></svg>