<svg viewBox="0 0 512 512" xmlns="http://www.w3.org/2000/svg" xmlns:xlink="http://www.w3.org/1999/xlink"><linearGradient id="a" gradientTransform="matrix(1 0 0 -1 0 -13022)" gradientUnits="userSpaceOnUse" x1="0" x2="512" y1="-13278" y2="-13278"><stop offset="0" stop-color="#00f38d"/><stop offset="1" stop-color="#009eff"/></linearGradient><path d="m512 256c0 141.386719-114.613281 256-256 256s-256-114.613281-256-256 114.613281-256 256-256 256 114.613281 256 256zm0 0" fill="url(#a)"/><path d="m308.640625 83.691406-105.535156 27.386719-119.605469-28.1875v315.644531l119.8125 29.761719 105.582031-26.730469 119.605469 27.425782v-315.527344zm89.859375 163.019532-74.777344-19.054688v-109.304688l74.777344 18.574219zm-104.777344 127.75-75.445312 19.101562v-115.28125l75.445312-19.578125zm-75.445312-236.328126 75.445312-19.574218v109.152344l-75.445312 19.578124zm-30 .273438v109.441406l-74.777344-17.144531v-109.921875zm-74.777344 123.074219 74.777344 17.148437v115.019532l-74.777344-18.574219zm210.222656 112.707031v-115.570312l74.777344 19.050781v113.667969zm0 0" fill="#fff"/></svg>