<svg viewBox="0 0 512 512" xmlns="http://www.w3.org/2000/svg" xmlns:xlink="http://www.w3.org/1999/xlink"><linearGradient id="a" gradientTransform="matrix(1 0 0 -1 0 -17294)" gradientUnits="userSpaceOnUse" x1="0" x2="512" y1="-17550" y2="-17550"><stop offset="0" stop-color="#00f38d"/><stop offset="1" stop-color="#009eff"/></linearGradient><path d="m512 256c0 141.386719-114.613281 256-256 256s-256-114.613281-256-256 114.613281-256 256-256 256 114.613281 256 256zm0 0" fill="url(#a)"/><path d="m387.371094 328.816406c-2.59375-2.597656-9.351563-9.351562-51.984375-13.984375l-9.882813-9.882812c39.332032-43.085938 63.296875-92.144531 76.742188-126.925781 15.769531-40.800782 20.84375-70.816407 21.054687-72.074219l3.433594-20.738281-20.730469 3.5c-1.253906.210937-31.183594 5.367187-71.894531 21.222656-34.703125 13.515625-83.667969 37.558594-126.730469 76.890625l-9.808594-9.804688c-.40625-4.175781-1.101562-10.558593-2.121093-17.3125-3.558594-23.613281-7.839844-30.65625-11.933594-34.75l-40.03125-40.027343-58.554687 58.554687 40.027343 40.03125c2.566407 2.566406 9.195313 9.191406 50.503907 13.820313l10.71875 10.71875c-39.136719 42.96875-63.007813 91.691406-76.417969 126.234374-15.773438 40.640626-20.851563 70.496094-21.058594 71.746094l-3.4375 20.640625 20.648437-3.371093c1.257813-.203126 31.199219-5.195313 71.929688-20.886719 34.621094-13.339844 83.4375-37.132813 126.429688-76.269531l10.632812 10.628906c.417969 4.128906 1.070312 9.839844 1.976562 15.84375 3.558594 23.613281 7.835938 30.65625 11.933594 34.75l40.027344 40.03125 58.558594-58.558594zm1.128906-205.230468c-9.332031 34.808593-32.953125 103.53125-84.226562 160.136718l-8.71875-8.71875 4.433593-4.4375c16.148438-16.144531 16.148438-42.410156 0-58.554687-16.140625-16.144531-42.410156-16.148438-58.554687 0l-4.4375 4.433593-8.390625-8.390624c56.464843-51.148438 125.125-74.996094 159.894531-84.46875zm-155.277344 139.058593 3.773438-3.773437 16.132812 16.132812-3.773437 3.773438c-2.15625 2.15625-5.019531 3.339844-8.066407 3.339844-3.046874 0-5.910156-1.183594-8.066406-3.339844-4.449218-4.449219-4.449218-11.683594 0-16.132813zm24.988282-24.988281 4.433593-4.433594c2.222657-2.222656 5.144531-3.335937 8.066407-3.335937 2.921874 0 5.84375 1.113281 8.066406 3.335937 4.445312 4.449219 4.445312 11.683594 0 16.132813l-4.4375 4.433593zm-130.855469-94.171875 16.128906-16.132813 18.054687 18.058594c1.421876 3.003906 3.109376 10.914063 4.492188 20.359375-9.621094-1.492187-17.707031-3.199219-20.90625-4.511719zm-3.855469 245.054687c9.3125-34.5625 32.855469-102.761718 83.90625-159.261718l8.378906 8.378906-3.777344 3.777344c-7.820312 7.820312-12.125 18.21875-12.125 29.277344 0 11.058593 4.304688 21.457031 12.125 29.277343 7.820313 7.820313 18.21875 12.128907 29.28125 12.128907 11.058594 0 21.457032-4.308594 29.277344-12.128907l3.773438-3.773437 8.707031 8.703125c-56.40625 50.90625-124.886719 74.355469-159.546875 83.621093zm245.34375-3.5625-18.054688-18.054687c-1.417968-3.007813-3.105468-10.917969-4.488281-20.359375 9.621094 1.492188 17.707031 3.195312 20.902344 4.511719l17.773437 17.769531zm0 0" fill="#fff"/></svg>