<svg viewBox="0 0 512 512" xmlns="http://www.w3.org/2000/svg" xmlns:xlink="http://www.w3.org/1999/xlink"><linearGradient id="a" gradientTransform="matrix(1 0 0 -1 0 -14446)" gradientUnits="userSpaceOnUse" x1="0" x2="512" y1="-14702" y2="-14702"><stop offset="0" stop-color="#00f38d"/><stop offset="1" stop-color="#009eff"/></linearGradient><path d="m512 256c0 141.386719-114.613281 256-256 256s-256-114.613281-256-256 114.613281-256 256-256 256 114.613281 256 256zm0 0" fill="url(#a)"/><path d="m273.359375 102.515625 22.371094-38.398437-25.917969-15.101563-13.8125 23.703125-13.8125-23.703125-25.917969 15.101563 22.371094 38.398437-159.640625 274v25.914063h354v-25.914063zm-79.601563 269.914063c31.621094-30.003907 51.308594-65.871094 62.722657-92.535157 11.914062 26.597657 31.996093 62.507813 62.84375 92.535157zm172.851563 0c-69.261719-46.429688-95.207031-137.710938-95.457031-138.617188l-3.03125-11.027344h-24.640625l-2.753907 11.507813c-.21875.914062-22.683593 91.734375-95.304687 138.136719h-29.320313l139.898438-240.117188 139.898438 240.117188zm0 0" fill="#fff"/></svg>