<svg viewBox="0 0 512 512" xmlns="http://www.w3.org/2000/svg" xmlns:xlink="http://www.w3.org/1999/xlink"><linearGradient id="a" gradientTransform="matrix(1 0 0 -1 0 -18718)" gradientUnits="userSpaceOnUse" x1="0" x2="512" y1="-18974" y2="-18974"><stop offset="0" stop-color="#00f38d"/><stop offset="1" stop-color="#009eff"/></linearGradient><path d="m512 256c0 141.386719-114.613281 256-256 256s-256-114.613281-256-256 114.613281-256 256-256 256 114.613281 256 256zm0 0" fill="url(#a)"/><g fill="#fff"><path d="m176.175781 79c-9.988281 0-33.414062 5.441406-53.761719 20.039062-19.804687 14.214844-43.414062 41.65625-43.414062 91.679688 0 60.347656 3.894531 110.0625 11.582031 147.765625 12.78125 62.714844 36.972657 94.515625 71.898438 94.515625 44.324219 0 60.113281-29.398438 60.113281-56.910156 0-8.355469-.832031-20.867188-1.710938-34.117188-.960937-14.460937-2.054687-30.855468-2.054687-42.449218 0-25.886719 6.878906-51.546876 13.527344-76.367188 5.753906-21.46875 11.1875-41.75 11.1875-59.84375 0-24.347656-3.695313-41.996094-11.625-55.535156-7.6875-13.128906-23.601563-28.777344-55.742188-28.777344zm-36.636719 44.679688c16.316407-11.855469 33.851563-14.621094 36.65625-14.679688 23.058594.007812 37.347657 9.101562 37.347657 54.3125 0 7.957031-1.5625 17.273438-3.859375 27.371094-8.703125-17.214844-19.640625-27.425782-27.234375-32.9375v-23.933594h-30v24.109375c-9.886719 6.746094-27.921875 20.316406-43.433594 38.875-.007813-2.015625-.015625-4.039063-.015625-6.082031 0-29.757813 10.273438-52.3125 30.539062-67.035156zm22.941407 279.320312c-24.476563 0-37.136719-44.175781-42.503907-70.507812-4.179687-20.507813-7.175781-44.964844-8.96875-73.105469 3.753907-34.753907 40.367188-64.046875 56.515626-75.386719 9.34375 7.792969 25.789062 27.710938 26.101562 71.433594-2.824219 14.238281-4.792969 29.035156-4.792969 44.089844 0 12.589843 1.074219 28.78125 2.117188 44.441406.847656 12.734375 1.648437 24.765625 1.648437 32.125 0 24.121094-17.191406 26.910156-30.117187 26.910156zm0 0"/><path d="m389.585938 99.039062c-20.347657-14.597656-43.773438-20.039062-53.761719-20.039062-32.140625 0-48.054688 15.648438-55.742188 28.777344-7.929687 13.539062-11.625 31.1875-11.625 55.535156 0 18.09375 5.433594 38.375 11.1875 59.84375 6.648438 24.816406 13.523438 50.480469 13.523438 76.367188 0 11.59375-1.089844 27.988281-2.050781 42.449218-.882813 13.25-1.714844 25.761719-1.714844 34.117188 0 27.511718 15.792968 56.910156 60.117187 56.910156 34.925781 0 59.117188-31.800781 71.898438-94.515625 7.6875-37.703125 11.582031-87.417969 11.582031-147.765625 0-50.023438-23.609375-77.464844-43.414062-91.679688zm-53.78125 9.960938c2.804687.058594 20.339843 2.824219 36.65625 14.679688 20.265624 14.722656 30.539062 37.277343 30.539062 67.039062 0 2.039062-.007812 4.0625-.015625 6.078125-15.511719-18.554687-33.542969-32.125-43.433594-38.875v-24.109375h-30v23.933594c-7.59375 5.511718-18.53125 15.722656-27.234375 32.941406-2.296875-10.101562-3.859375-19.414062-3.859375-27.375 0-45.210938 14.289063-54.304688 37.347657-54.3125zm13.714843 294c-12.925781 0-30.113281-2.789062-30.113281-26.910156 0-7.355469.796875-19.390625 1.644531-32.125 1.042969-15.660156 2.121094-31.851563 2.121094-44.441406 0-15.050782-1.972656-29.851563-4.796875-44.089844.3125-43.71875 16.757812-63.636719 26.101562-71.429688 16.160157 11.34375 52.761719 40.632813 56.519532 75.382813-1.796875 28.140625-4.792969 52.597656-8.972656 73.109375-5.367188 26.328125-18.027344 70.503906-42.503907 70.503906zm0 0"/></g></svg>