<svg viewBox="0 0 512 512" xmlns="http://www.w3.org/2000/svg" xmlns:xlink="http://www.w3.org/1999/xlink"><linearGradient id="a" gradientTransform="matrix(1 0 0 -1 0 -13022)" gradientUnits="userSpaceOnUse" x1="0" x2="512" y1="-13278" y2="-13278"><stop offset="0" stop-color="#00f38d"/><stop offset="1" stop-color="#009eff"/></linearGradient><path d="m512 256c0 141.386719-114.613281 256-256 256s-256-114.613281-256-256 114.613281-256 256-256 256 114.613281 256 256zm0 0" fill="url(#a)"/><g fill="#fff"><path d="m400.183594 135.347656c0-26.382812-21.449219-47.847656-47.8125-47.847656-26.363282 0-47.8125 21.464844-47.8125 47.847656v1.007813c0 28.085937 31.96875 55.367187 38.378906 60.550781l9.429688 7.628906 9.433593-7.628906c6.410157-5.183594 38.378907-32.464844 38.378907-60.550781v-1.007813zm-30 1.007813c0 7.558593-8.792969 19.296875-17.8125 28.535156-9.023438-9.242187-17.8125-20.980469-17.8125-28.535156v-1.007813c0-9.839844 7.992187-17.847656 17.8125-17.847656 9.820312 0 17.8125 8.007812 17.8125 17.847656zm0 0"/><path d="m167.292969 149.789062c-22.742188 0-41.25 18.507813-41.25 41.25 0 22.746094 18.507812 41.25 41.25 41.25 22.746093 0 41.25-18.503906 41.25-41.25 0-22.742187-18.503907-41.25-41.25-41.25zm0 52.5c-6.203125 0-11.25-5.046874-11.25-11.25 0-6.203124 5.046875-11.25 11.25-11.25s11.25 5.046876 11.25 11.25c0 6.203126-5.046875 11.25-11.25 11.25zm0 0"/><path d="m261.042969 192.113281v-2.410156c0-51.667969-42.054688-93.703125-93.75-93.703125-51.691407 0-93.75 42.035156-93.75 93.703125v2.410156c0 25.9375 14.492187 55.714844 43.066406 88.503907 20.320313 23.3125 40.414063 39.621093 41.261719 40.304687l9.421875 7.609375 9.425781-7.609375c.84375-.683594 20.941406-16.992187 41.257812-40.304687 28.578126-32.789063 43.066407-62.566407 43.066407-88.503907zm-93.757813 97.378907c-23.800781-21.425782-63.742187-64.292969-63.742187-97.375v-2.414063c0-35.125 28.597656-63.703125 63.75-63.703125 35.152343 0 63.75 28.578125 63.75 63.703125v2.414063c0 32.996093-39.960938 75.917968-63.757813 97.375zm0 0"/><path d="m411.433594 313.8125c0 7.25-5.875 13.125-13.125 13.125s-13.125-5.875-13.125-13.125 5.875-13.125 13.125-13.125 13.125 5.875 13.125 13.125zm0 0"/><path d="m411.433594 359.09375c0 7.25-5.875 13.125-13.125 13.125s-13.125-5.875-13.125-13.125 5.875-13.125 13.125-13.125 13.125 5.875 13.125 13.125zm0 0"/><path d="m411.433594 404.375c0 7.25-5.875 13.125-13.125 13.125s-13.125-5.875-13.125-13.125 5.875-13.125 13.125-13.125 13.125 5.875 13.125 13.125zm0 0"/><path d="m319.558594 223.25c0 7.25-5.875 13.125-13.125 13.125s-13.125-5.875-13.125-13.125 5.875-13.125 13.125-13.125 13.125 5.875 13.125 13.125zm0 0"/><path d="m365.496094 313.8125c0 7.25-5.878906 13.125-13.125 13.125-7.25 0-13.125-5.875-13.125-13.125s5.875-13.125 13.125-13.125c7.246094 0 13.125 5.875 13.125 13.125zm0 0"/><path d="m365.496094 223.25c0 7.25-5.878906 13.125-13.125 13.125-7.25 0-13.125-5.875-13.125-13.125s5.875-13.125 13.125-13.125c7.246094 0 13.125 5.875 13.125 13.125zm0 0"/><path d="m319.558594 313.8125c0 7.25-5.875 13.125-13.125 13.125s-13.125-5.875-13.125-13.125 5.875-13.125 13.125-13.125 13.125 5.875 13.125 13.125zm0 0"/><path d="m319.558594 268.53125c0 7.25-5.875 13.125-13.125 13.125s-13.125-5.875-13.125-13.125 5.875-13.125 13.125-13.125 13.125 5.875 13.125 13.125zm0 0"/><path d="m365.496094 404.375c0 7.25-5.878906 13.125-13.125 13.125-7.25 0-13.125-5.875-13.125-13.125s5.875-13.125 13.125-13.125c7.246094 0 13.125 5.875 13.125 13.125zm0 0"/><path d="m319.558594 404.375c0 7.25-5.875 13.125-13.125 13.125s-13.125-5.875-13.125-13.125 5.875-13.125 13.125-13.125 13.125 5.875 13.125 13.125zm0 0"/><path d="m273.621094 404.375c0 7.25-5.878906 13.125-13.125 13.125-7.25 0-13.125-5.875-13.125-13.125s5.875-13.125 13.125-13.125c7.246094 0 13.125 5.875 13.125 13.125zm0 0"/><path d="m227.683594 404.375c0 7.25-5.875 13.125-13.125 13.125s-13.125-5.875-13.125-13.125 5.875-13.125 13.125-13.125 13.125 5.875 13.125 13.125zm0 0"/><path d="m181.746094 404.375c0 7.25-5.878906 13.125-13.125 13.125-7.25 0-13.125-5.875-13.125-13.125s5.875-13.125 13.125-13.125c7.246094 0 13.125 5.875 13.125 13.125zm0 0"/><path d="m181.746094 359.09375c0 7.25-5.878906 13.125-13.125 13.125-7.25 0-13.125-5.875-13.125-13.125s5.875-13.125 13.125-13.125c7.246094 0 13.125 5.875 13.125 13.125zm0 0"/></g></svg>