<svg viewBox="0 0 512 512" xmlns="http://www.w3.org/2000/svg" xmlns:xlink="http://www.w3.org/1999/xlink"><linearGradient id="a" gradientTransform="matrix(1 0 0 -1 0 -13022)" gradientUnits="userSpaceOnUse" x1="0" x2="512" y1="-13278" y2="-13278"><stop offset="0" stop-color="#00f38d"/><stop offset="1" stop-color="#009eff"/></linearGradient><path d="m512 256c0 141.386719-114.613281 256-256 256s-256-114.613281-256-256 114.613281-256 256-256 256 114.613281 256 256zm0 0" fill="url(#a)"/><g fill="#fff"><path d="m222.960938 355.339844h58.8125v30h-58.8125zm0 0"/><path d="m335.207031 131.941406c-24.160156 0-43.8125 19.652344-43.8125 43.8125 0 24.15625 19.652344 43.8125 43.8125 43.8125 24.160157 0 43.8125-19.65625 43.8125-43.8125 0-24.160156-19.652343-43.8125-43.8125-43.8125zm0 57.625c-7.617187 0-13.8125-6.195312-13.8125-13.8125 0-7.617187 6.195313-13.8125 13.8125-13.8125 7.617188 0 13.8125 6.195313 13.8125 13.8125 0 7.617188-6.195312 13.8125-13.8125 13.8125zm0 0"/><path d="m344.570312 73.332031v-.453125h-184.40625c-24.160156 0-43.8125 19.65625-43.8125 43.8125v282.375c0 24.15625 19.652344 43.8125 43.8125 43.8125h184.40625c24.160157 0 43.8125-19.65625 43.8125-43.8125v-124.414062c.453126-.507813.902344-1.019532 1.351563-1.535156 31.128906-35.71875 46.914063-68.082032 46.914063-96.183594v-2.648438c0-52.75-40.515626-96.214844-92.078126-100.953125zm0 339.546875h-184.40625c-7.617187 0-13.8125-6.199218-13.8125-13.8125v-282.375c0-7.617187 6.195313-13.8125 13.8125-13.8125h103.101563c-18.222656 18.339844-29.5 43.582032-29.5 71.410156v2.644532c0 28.105468 15.78125 60.464844 46.910156 96.183594 22.21875 25.496093 44.183594 43.316406 45.105469 44.0625l9.425781 7.609374 9.421875-7.609374c.449219-.359376 5.820313-4.722657 13.753906-12.003907v93.890625c.003907 7.617188-6.195312 13.8125-13.8125 13.8125zm62.078126-235.945312c0 37.195312-45.285157 85.441406-71.449219 108.851562-26.167969-23.378906-71.433594-71.566406-71.433594-108.851562v-2.648438c0-39.363281 32.046875-71.390625 71.441406-71.390625 39.390625 0 71.4375 32.027344 71.4375 71.390625v2.648438zm0 0"/></g></svg>