<svg viewBox="0 0 512 512" xmlns="http://www.w3.org/2000/svg" xmlns:xlink="http://www.w3.org/1999/xlink"><linearGradient id="a" gradientTransform="matrix(1 0 0 -1 0 -13022)" gradientUnits="userSpaceOnUse" x1="0" x2="512" y1="-13278" y2="-13278"><stop offset="0" stop-color="#00f38d"/><stop offset="1" stop-color="#009eff"/></linearGradient><path d="m512 256c0 141.386719-114.613281 256-256 256s-256-114.613281-256-256 114.613281-256 256-256 256 114.613281 256 256zm0 0" fill="url(#a)"/><path d="m366.394531 208.78125 47.015625 80.183594 25.878906-15.171875-64.039062-109.222657h-17.996094l-25.382812 44.023438-69.855469-144.09375h-19.78125l-54.925781 118.925781-41.582032-66.402343-18.585937-.015626-55.699219 103.542969 26.421875 14.210938 39.828125-74.039063 34.589844 55.238282-89.390625 193.539062h346.375l-81.578125-168.277344zm-113.851562-95.054688 41.722656 86.066407-14.484375 23.390625-25.566406-38.699219-30.699219 56.769531-17.191406-27.453125zm-122.75 265.773438 61.507812-133.171875 34.117188 54.488281 31.367187-58.015625 23.816406 36.042969 29.160157-47.089844 71.621093 147.746094zm0 0" fill="#fff"/></svg>