<svg viewBox="0 0 512 512" xmlns="http://www.w3.org/2000/svg" xmlns:xlink="http://www.w3.org/1999/xlink"><linearGradient id="a" gradientTransform="matrix(1 0 0 -1 0 -14446)" gradientUnits="userSpaceOnUse" x1="0" x2="512" y1="-14702" y2="-14702"><stop offset="0" stop-color="#00f38d"/><stop offset="1" stop-color="#009eff"/></linearGradient><path d="m512 256c0 141.386719-114.613281 256-256 256s-256-114.613281-256-256 114.613281-256 256-256 256 114.613281 256 256zm0 0" fill="url(#a)"/><g fill="#fff"><path d="m215.957031 65.824219h26.695313v26.695312h-26.695313zm0 0"/><path d="m269.347656 65.824219h26.695313v26.695312h-26.695313zm0 0"/><path d="m407.847656 230.0625-27.21875-84.210938-.109375-.328124c-5.835937-16.722657-21.65625-27.960938-39.371093-27.960938h-18.410157v-25.042969h-26.695312v25.042969h-26.695313v-25.042969h-26.695312v25.042969h-26.695313v-25.042969h-26.695312v25.042969h-18.410157c-17.714843 0-33.535156 11.238281-39.371093 27.960938l-27.304688 84.527343c-12.355469 7.246094-20.675781 20.660157-20.675781 35.984375v101.441406c0 22.992188 18.703125 41.695313 41.695312 41.695313 22.988282 0 41.695313-18.703125 41.695313-41.695313v-5.019531h178.21875v5.019531c0 22.992188 18.703125 41.695313 41.695313 41.695313 22.992187 0 41.695312-18.703125 41.695312-41.695313v-101.4375c0-15.320312-8.308594-28.726562-20.652344-35.976562zm-247.992187-74.789062c1.671875-4.617188 6.074219-7.710938 10.996093-7.710938h170.296876c4.921874 0 9.324218 3.09375 10.996093 7.714844l22.324219 69.0625h-236.925781zm-22.964844 212.203124c0 6.449219-5.246094 11.695313-11.695313 11.695313-6.449218 0-11.695312-5.246094-11.695312-11.695313v-6.703124c3.714844 1.089843 7.636719 1.683593 11.695312 1.683593h11.695313zm249.914063 11.695313c-6.449219 0-11.695313-5.246094-11.695313-11.695313v-5.019531h11.695313c4.058593 0 7.980468-.59375 11.695312-1.679687v6.703125c0 6.445312-5.246094 11.691406-11.695312 11.691406zm11.695312-58.410156c0 6.449219-5.246094 11.695312-11.695312 11.695312h-261.609376c-6.449218 0-11.695312-5.246093-11.695312-11.695312v-54.726563c0-6.445312 5.246094-11.691406 11.695312-11.691406h261.609376c6.449218 0 11.695312 5.246094 11.695312 11.691406zm0 0"/><path d="m205.945312 285.742188h100.105469v30h-100.105469zm0 0"/><path d="m373.457031 287.394531c0 7.371094-5.976562 13.34375-13.347656 13.34375s-13.347656-5.972656-13.347656-13.34375c0-7.371093 5.976562-13.347656 13.347656-13.347656s13.347656 5.976563 13.347656 13.347656zm0 0"/><path d="m165.238281 287.394531c0 7.371094-5.976562 13.34375-13.347656 13.34375s-13.347656-5.972656-13.347656-13.34375c0-7.371093 5.976562-13.347656 13.347656-13.347656s13.347656 5.976563 13.347656 13.347656zm0 0"/></g></svg>