<svg viewBox="0 0 512 512" xmlns="http://www.w3.org/2000/svg" xmlns:xlink="http://www.w3.org/1999/xlink"><linearGradient id="a" gradientTransform="matrix(1 0 0 -1 0 -14446)" gradientUnits="userSpaceOnUse" x1="0" x2="512" y1="-14702" y2="-14702"><stop offset="0" stop-color="#00f38d"/><stop offset="1" stop-color="#009eff"/></linearGradient><path d="m512 256c0 141.386719-114.613281 256-256 256s-256-114.613281-256-256 114.613281-256 256-256 256 114.613281 256 256zm0 0" fill="url(#a)"/><path d="m405.421875 169.28125c0-42.613281-34.667969-77.28125-77.285156-77.28125-18.5 0-36.398438 6.640625-50.402344 18.699219-11.253906 9.691406-19.441406 22.378906-23.648437 36.4375h-23.023438l-18.375-55.136719h-106.109375v30h84.484375l8.378906 25.136719h-28.902344v19.710937c0 27.066406-4.222656 53.46875-12.554687 78.46875-3.257813 9.777344-4.984375 20-5.132813 30.378906-.386718 26.976563 9.851563 52.507813 28.835938 71.898438 15.574219 15.90625 35.40625 26.007812 56.917969 29.222656v36.460938h-53.066407v30h136.132813v-30h-53.066406v-36.445313c21.101562-3.128906 40.582031-12.847656 56.003906-28.167969 19.191406-19.058593 29.761719-44.449218 29.761719-71.496093 0-10.476563-1.605469-20.804688-4.773438-30.707031-.289062-.902344-.5625-1.808594-.839844-2.714844 32.632813-9.046875 56.664063-38.992188 56.664063-74.464844zm-98.550781 7.855469c.3125 8.105469.996094 16.261719 2.046875 24.453125h-59.703125l-8.152344-24.453125zm-89.277344 24.453125h-19.171875c.992187-8.082032 1.640625-16.238282 1.933594-24.453125h9.085937zm85.875 125.789062c-13.355469 13.269532-31.046875 20.554688-49.863281 20.554688-.164063 0-.332031 0-.5 0-18.894531-.128906-36.644531-7.703125-49.980469-21.324219-13.347656-13.636719-20.550781-31.5625-20.277344-50.480469.105469-7.296875 1.316406-14.472656 3.601563-21.328125 2.539062-7.628906 4.738281-15.371093 6.59375-23.210937h121.328125c1.878906 8 4.09375 16.007812 6.652344 24.011718 2.222656 6.941407 3.347656 14.199219 3.347656 21.570313 0 18.992187-7.425782 36.824219-20.902344 50.207031zm37.945312-112.726562c-3.144531-16.109375-4.742187-32.101563-4.742187-47.808594v-19.707031h-50.367187c7.960937-15.15625 23.773437-25.136719 41.835937-25.136719 26.070313 0 47.28125 21.210938 47.28125 47.28125 0 21.460938-14.378906 39.617188-34.007813 45.371094zm0 0" fill="#fff"/></svg>