<svg viewBox="0 0 512 512" xmlns="http://www.w3.org/2000/svg" xmlns:xlink="http://www.w3.org/1999/xlink"><linearGradient id="a" gradientTransform="matrix(1 0 0 -1 0 -18718)" gradientUnits="userSpaceOnUse" x1="0" x2="512" y1="-18974" y2="-18974"><stop offset="0" stop-color="#00f38d"/><stop offset="1" stop-color="#009eff"/></linearGradient><path d="m512 256c0 141.386719-114.613281 256-256 256s-256-114.613281-256-256 114.613281-256 256-256 256 114.613281 256 256zm0 0" fill="url(#a)"/><path d="m412.746094 105.257812c-20.546875-20.550781-55.949219-22.230468-99.683594-4.734374-9.8125 3.925781-19.941406 8.785156-30.1875 14.453124-41.246094-39.816406-98.960938-34.308593-147.582031 14.316407-22.453125 22.449219-36.230469 47.46875-39.84375 72.347656-4.039063 27.792969 4.785156 53.761719 25.523437 75.230469-5.667968 10.246094-10.523437 20.378906-14.449218 30.191406-17.496094 43.734375-15.816407 79.132812 4.730468 99.683594 11.140625 11.140625 26.644532 16.734375 45.476563 16.734375 15.902343 0 34.183593-3.992188 54.207031-12.003907 36.101562-14.445312 75.296875-40.882812 111.019531-74.460937v88.5625l40.847657-30.636719 40.847656 30.636719v-119.03125c0-18.707031-3.714844-37.097656-10.835938-54.199219 10.242188-16.15625 18.53125-32.089844 24.660156-47.410156 17.496094-43.734375 15.816407-79.132812-4.730468-99.679688zm-215.472656 205.523438-14.816407-14.816406c46.265625-27.089844 92.417969-73.242188 119.507813-119.507813l14.816406 14.816407c-24.8125 46.054687-73.453125 94.695312-119.507812 119.507812zm-72.136719-104.828125c2.679687-18.433594 13.523437-37.605469 31.367187-55.449219 9.503906-9.5 35.117188-32.019531 64.175782-32.019531 13.8125 0 28.40625 5.09375 42.410156 19.09375l16.855468 16.859375c-24.8125 46.054688-73.453124 94.695312-119.507812 119.503906l-16.855469-16.855468c-14.992187-14.988282-21.199219-32.195313-18.445312-51.132813zm74.65625 177.667969c-30.960938 12.390625-56.132813 13.105468-67.324219 1.910156s-10.480469-36.359375 1.910156-67.324219c2.492188-6.226562 5.425782-12.632812 8.753906-19.140625l48.058594 48.054688 9.539063-4.488282c36.011719-16.953124 73.515625-47.195312 103.394531-81.574218l9.144531 14.542968c3.851563 6.128907 6.46875 12.894532 7.757813 19.9375-37.957032 40.386719-81.839844 72.320313-121.234375 88.082032zm173.859375-18.046875-10.847656-8.132813-10.847657 8.132813v-59.820313c0-16.335937-4.597656-32.28125-13.292969-46.117187l-14.773437-23.507813c4.726563-6.570312 9.132813-13.203125 13.144531-19.851562l19.578125 31.144531c11.148438 17.730469 17.039063 38.179687 17.039063 59.125zm15.96875-171.78125c-3.648438 9.121093-8.195313 18.542969-13.582032 28.160156l-23-36.585937.085938-.175782-.523438-.527344-.457031-.722656-.167969.101563-46.90625-46.90625c6.507813-3.328125 12.910157-6.269531 19.136719-8.761719 30.964844-12.386719 56.132813-13.101562 67.324219-1.90625 11.195312 11.191406 10.480469 36.359375-1.910156 67.324219zm0 0" fill="#fff"/></svg>