<svg xmlns="http://www.w3.org/2000/svg" xmlns:xlink="http://www.w3.org/1999/xlink" id="Layer_1" width="21" height="21" x="0" y="0" enable-background="new 0 0 21 21" version="1.1" viewBox="0 0 21 21" xml:space="preserve"><path fill="#FFF" d="M19.841,0H1.16C0.519,0,0,0.519,0,1.16v18.682C0,20.482,0.519,21,1.16,21h10.058v-8.132H8.48v-3.17h2.737	V7.361c0-2.712,1.656-4.189,4.076-4.189c1.16,0,2.155,0.087,2.445,0.125v2.835l-1.68,0.001c-1.314,0-1.57,0.626-1.57,1.542v2.024	h3.141l-0.408,3.17h-2.729V21h5.352c0.642,0,1.158-0.52,1.158-1.159V1.16C21,0.519,20.48,0,19.841,0z"/></svg>