<svg xmlns="http://www.w3.org/2000/svg" xmlns:xlink="http://www.w3.org/1999/xlink" id="Layer_1" width="21" height="21.667" x="0" y="0" enable-background="new 128 22.5 21 21.667" version="1.1" viewBox="128 22.5 21 21.667" xml:space="preserve"><g><defs><path id="SVGID_1_" d="M148.756,31.291h-10.012v4.151h5.763c-0.536,2.637-2.784,4.151-5.763,4.151 c-3.516,0-6.349-2.833-6.349-6.35c0-3.516,2.833-6.349,6.349-6.349c1.515,0,2.882,0.538,3.957,1.417l3.125-3.126 c-1.905-1.66-4.348-2.686-7.082-2.686C132.786,22.5,128,27.286,128,33.244s4.786,10.744,10.744,10.744 c5.371,0,10.256-3.906,10.256-10.744C149,32.609,148.902,31.926,148.756,31.291z"/></defs><clipPath id="SVGID_2_"><use overflow="visible" xlink:href="#SVGID_1_"/></clipPath><path fill="#FBBC05" d="M127.023,39.594V26.895l8.302,6.349L127.023,39.594z" clip-path="url(#SVGID_2_)"/></g><g><defs><path id="SVGID_3_" d="M148.756,31.291h-10.012v4.151h5.763c-0.536,2.637-2.784,4.151-5.763,4.151 c-3.516,0-6.349-2.833-6.349-6.35c0-3.516,2.833-6.349,6.349-6.349c1.515,0,2.882,0.538,3.957,1.417l3.125-3.126 c-1.905-1.66-4.348-2.686-7.082-2.686C132.786,22.5,128,27.286,128,33.244s4.786,10.744,10.744,10.744 c5.371,0,10.256-3.906,10.256-10.744C149,32.609,148.902,31.926,148.756,31.291z"/></defs><clipPath id="SVGID_4_"><use overflow="visible" xlink:href="#SVGID_3_"/></clipPath><path fill="#EA4335" d="M127.023,26.895l8.302,6.349l3.418-2.979l11.721-1.905v-6.837h-23.441V26.895z" clip-path="url(#SVGID_4_)"/></g><g><defs><path id="SVGID_5_" d="M148.756,31.291h-10.012v4.151h5.763c-0.536,2.637-2.784,4.151-5.763,4.151 c-3.516,0-6.349-2.833-6.349-6.35c0-3.516,2.833-6.349,6.349-6.349c1.515,0,2.882,0.538,3.957,1.417l3.125-3.126 c-1.905-1.66-4.348-2.686-7.082-2.686C132.786,22.5,128,27.286,128,33.244s4.786,10.744,10.744,10.744 c5.371,0,10.256-3.906,10.256-10.744C149,32.609,148.902,31.926,148.756,31.291z"/></defs><clipPath id="SVGID_6_"><use overflow="visible" xlink:href="#SVGID_5_"/></clipPath><path fill="#34A853" d="M127.023,39.594l14.651-11.233l3.857,0.488l4.933-7.325v23.441h-23.441V39.594z" clip-path="url(#SVGID_6_)"/></g><g><defs><path id="SVGID_7_" d="M148.756,31.291h-10.012v4.151h5.763c-0.536,2.637-2.784,4.151-5.763,4.151 c-3.516,0-6.349-2.833-6.349-6.35c0-3.516,2.833-6.349,6.349-6.349c1.515,0,2.882,0.538,3.957,1.417l3.125-3.126 c-1.905-1.66-4.348-2.686-7.082-2.686C132.786,22.5,128,27.286,128,33.244s4.786,10.744,10.744,10.744 c5.371,0,10.256-3.906,10.256-10.744C149,32.609,148.902,31.926,148.756,31.291z"/></defs><clipPath id="SVGID_8_"><use overflow="visible" xlink:href="#SVGID_7_"/></clipPath><path fill="#4285F4" d="M150.465,44.965l-15.139-11.721l-1.954-1.465l17.093-4.884V44.965z" clip-path="url(#SVGID_8_)"/></g></svg>