<?xml version="1.0" standalone="no"?>
<!DOCTYPE svg PUBLIC "-//W3C//DTD SVG 20010904//EN"
 "http://www.w3.org/TR/2001/REC-SVG-20010904/DTD/svg10.dtd">
<svg version="1.0" xmlns="http://www.w3.org/2000/svg"
 width="562.000000pt" height="145.000000pt" viewBox="0 0 562.000000 145.000000"
 preserveAspectRatio="xMidYMid meet">
<metadata>
Created by potrace 1.15, written by Peter Selinger 2001-2017
</metadata>
<g transform="translate(0.000000,145.000000) scale(0.100000,-0.100000)"
fill="#000000" stroke="none">
<path d="M730 1406 c-60 -17 -121 -47 -200 -96 -87 -54 -106 -75 -134 -144
l-24 -59 -16 30 c-21 41 -69 80 -115 94 -45 13 -90 2 -134 -34 l-29 -23 47 -2
c26 -1 56 3 66 9 15 8 19 6 19 -7 0 -14 7 -16 36 -11 29 5 37 3 41 -12 2 -10
18 -25 34 -35 52 -31 30 -35 -26 -4 -63 34 -133 40 -181 15 -38 -20 -94 -66
-94 -77 0 -12 42 0 63 19 17 14 20 14 30 1 15 -20 45 -14 76 13 l23 22 -6 -22
c-7 -20 -5 -21 24 -13 16 5 30 5 30 0 0 -4 9 -10 20 -13 27 -7 15 -37 -15 -37
-25 0 -50 -24 -41 -39 4 -5 -4 -11 -16 -13 -19 -2 -26 -14 -37 -60 -21 -81
-18 -83 74 -30 33 19 51 36 53 51 2 14 9 21 20 19 14 -3 18 -22 23 -113 5 -85
14 -132 38 -205 18 -52 39 -105 47 -117 20 -32 18 -41 -16 -48 -54 -12 -43
-25 23 -25 l63 0 42 -61 c41 -59 45 -79 16 -79 -8 0 -14 -4 -14 -10 0 -5 14
-10 31 -10 28 0 49 -17 157 -130 68 -71 128 -130 132 -130 4 0 39 32 76 70 38
39 73 70 79 70 5 0 33 12 60 25 45 23 46 25 18 20 -67 -10 -20 55 52 74 22 6
49 17 60 26 19 14 17 14 -24 8 -50 -7 -53 -16 28 101 64 95 133 236 157 326
28 100 24 236 -9 330 -20 56 -24 76 -14 82 6 3 21 14 32 23 18 15 18 16 2 11
-59 -19 -61 -18 -102 35 -51 67 -134 128 -222 164 -56 23 -86 28 -173 31 -66
2 -122 -1 -150 -10z m243 -181 c9 -4 17 -13 17 -21 0 -8 5 -14 11 -14 5 0 7 5
3 11 -4 7 2 9 17 7 15 -2 23 -9 21 -19 -5 -31 84 -89 137 -89 11 0 6 8 -14 25
l-30 24 45 1 c72 0 89 -9 114 -59 65 -129 60 -275 -15 -459 -7 -17 -17 -32
-22 -32 -9 0 -118 71 -161 105 -19 14 -19 16 9 66 23 43 28 65 29 123 2 123
-59 214 -180 267 -59 27 -149 22 -212 -10 -36 -18 -48 -20 -80 -11 -52 14 -89
12 -149 -9 -49 -16 -71 -13 -40 6 7 4 23 24 36 43 16 24 31 35 49 36 98 4 288
16 290 19 6 5 107 -2 125 -10z m-18 -124 c122 -55 168 -201 101 -316 -30 -50
-95 -95 -148 -103 -33 -4 -45 0 -79 28 -35 28 -46 31 -79 26 -44 -7 -59 4 -90
65 -28 53 -27 152 1 198 18 30 22 32 37 18 9 -8 22 -12 29 -10 6 2 14 -5 18
-17 3 -11 11 -18 16 -15 14 9 11 46 -6 79 -19 37 -20 35 18 51 45 20 134 18
182 -4z m-530 -122 c10 -31 47 -70 62 -65 7 3 10 -1 7 -8 -3 -7 13 -34 35 -59
21 -26 42 -60 46 -77 6 -29 8 -30 20 -13 7 10 15 16 17 13 2 -3 18 -24 36 -46
l32 -42 -69 -46 c-94 -63 -95 -63 -124 -24 -54 71 -79 154 -85 276 -3 76 -1
112 6 112 6 0 14 -9 17 -21z m755 -396 c25 -14 47 -27 49 -29 5 -5 -75 -128
-117 -181 -22 -27 -43 -43 -56 -43 -12 0 -53 16 -92 35 -38 19 -74 35 -80 35
-6 0 -17 7 -24 15 -14 17 -109 65 -128 65 -29 0 -8 18 41 35 66 23 169 75 227
114 l44 30 46 -26 c25 -14 65 -37 90 -50z"/>
</g>
</svg>
