<?xml version="1.0" standalone="no"?>
<!DOCTYPE svg PUBLIC "-//W3C//DTD SVG 20010904//EN"
 "http://www.w3.org/TR/2001/REC-SVG-20010904/DTD/svg10.dtd">
<svg version="1.0" xmlns="http://www.w3.org/2000/svg"
 width="562.000000pt" height="145.000000pt" viewBox="0 0 562.000000 145.000000"
 preserveAspectRatio="xMidYMid meet">
<metadata>
Created by potrace 1.15, written by Peter Selinger 2001-2017
</metadata>
<g transform="translate(0.000000,145.000000) scale(0.100000,-0.100000)"
fill="#000000" stroke="none">
<path d="M730 1406 c-60 -17 -121 -47 -200 -96 -87 -54 -106 -75 -134 -144
l-24 -59 -16 30 c-21 41 -69 80 -115 94 -45 13 -90 2 -134 -34 l-29 -23 47 -2
c26 -1 56 3 66 9 15 8 19 6 19 -7 0 -14 7 -16 36 -11 29 5 37 3 41 -12 2 -10
18 -25 34 -35 52 -31 30 -35 -26 -4 -63 34 -133 40 -181 15 -38 -20 -94 -66
-94 -77 0 -12 42 0 63 19 17 14 20 14 30 1 15 -20 45 -14 76 13 l23 22 -6 -22
c-7 -20 -5 -21 24 -13 16 5 30 5 30 0 0 -4 9 -10 20 -13 27 -7 15 -37 -15 -37
-25 0 -50 -24 -41 -39 4 -5 -4 -11 -16 -13 -19 -2 -26 -14 -37 -60 -21 -81
-18 -83 74 -30 33 19 51 36 53 51 2 14 9 21 20 19 14 -3 18 -22 23 -113 5 -85
14 -132 38 -205 18 -52 39 -105 47 -117 20 -32 18 -41 -16 -48 -54 -12 -43
-25 23 -25 l63 0 42 -61 c41 -59 45 -79 16 -79 -8 0 -14 -4 -14 -10 0 -5 14
-10 31 -10 28 0 49 -17 157 -130 68 -71 128 -130 132 -130 4 0 39 32 76 70 38
39 73 70 79 70 5 0 33 12 60 25 45 23 46 25 18 20 -67 -10 -20 55 52 74 22 6
49 17 60 26 19 14 17 14 -24 8 -50 -7 -53 -16 28 101 64 95 133 236 157 326
28 100 24 236 -9 330 -20 56 -24 76 -14 82 6 3 21 14 32 23 18 15 18 16 2 11
-59 -19 -61 -18 -102 35 -51 67 -134 128 -222 164 -56 23 -86 28 -173 31 -66
2 -122 -1 -150 -10z m243 -181 c9 -4 17 -13 17 -21 0 -8 5 -14 11 -14 5 0 7 5
3 11 -4 7 2 9 17 7 15 -2 23 -9 21 -19 -5 -31 84 -89 137 -89 11 0 6 8 -14 25
l-30 24 45 1 c72 0 89 -9 114 -59 65 -129 60 -275 -15 -459 -7 -17 -17 -32
-22 -32 -9 0 -118 71 -161 105 -19 14 -19 16 9 66 23 43 28 65 29 123 2 123
-59 214 -180 267 -59 27 -149 22 -212 -10 -36 -18 -48 -20 -80 -11 -52 14 -89
12 -149 -9 -49 -16 -71 -13 -40 6 7 4 23 24 36 43 16 24 31 35 49 36 98 4 288
16 290 19 6 5 107 -2 125 -10z m-18 -124 c122 -55 168 -201 101 -316 -30 -50
-95 -95 -148 -103 -33 -4 -45 0 -79 28 -35 28 -46 31 -79 26 -44 -7 -59 4 -90
65 -28 53 -27 152 1 198 18 30 22 32 37 18 9 -8 22 -12 29 -10 6 2 14 -5 18
-17 3 -11 11 -18 16 -15 14 9 11 46 -6 79 -19 37 -20 35 18 51 45 20 134 18
182 -4z m-530 -122 c10 -31 47 -70 62 -65 7 3 10 -1 7 -8 -3 -7 13 -34 35 -59
21 -26 42 -60 46 -77 6 -29 8 -30 20 -13 7 10 15 16 17 13 2 -3 18 -24 36 -46
l32 -42 -69 -46 c-94 -63 -95 -63 -124 -24 -54 71 -79 154 -85 276 -3 76 -1
112 6 112 6 0 14 -9 17 -21z m755 -396 c25 -14 47 -27 49 -29 5 -5 -75 -128
-117 -181 -22 -27 -43 -43 -56 -43 -12 0 -53 16 -92 35 -38 19 -74 35 -80 35
-6 0 -17 7 -24 15 -14 17 -109 65 -128 65 -29 0 -8 18 41 35 66 23 169 75 227
114 l44 30 46 -26 c25 -14 65 -37 90 -50z"/>
<path d="M3365 1315 c-179 -39 -295 -118 -295 -200 0 -31 3 -31 44 0 49 37
176 93 253 111 71 17 155 14 192 -6 21 -11 21 -12 4 -41 -36 -60 -204 -173
-346 -233 -43 -18 -42 -14 17 58 24 29 59 57 84 68 34 15 43 24 40 41 -2 12
-15 28 -31 35 -59 28 -139 -23 -253 -160 -73 -87 -81 -94 -127 -103 -73 -14
-73 -29 0 -60 1 0 -9 -23 -22 -50 -27 -57 -48 -157 -43 -200 2 -22 8 -30 23
-30 15 0 32 24 70 95 63 120 94 170 106 170 5 0 9 -21 9 -47 1 -179 100 -353
235 -415 58 -26 175 -31 238 -9 49 17 97 58 97 82 0 11 -4 18 -9 14 -27 -16
-120 -25 -171 -15 -153 29 -233 116 -268 293 -16 81 -8 127 21 127 27 0 153
57 219 99 73 46 177 151 196 197 8 19 31 39 67 58 52 27 115 85 115 106 0 16
-19 21 -40 10 -11 -6 -44 -32 -72 -57 -51 -45 -52 -46 -60 -22 -15 40 -49 69
-102 84 -60 18 -110 18 -191 0z"/>
<path d="M1895 1293 c-70 -29 -180 -98 -183 -116 -3 -14 4 -17 40 -17 24 1 60
7 80 14 43 16 46 22 -37 -94 -127 -177 -258 -408 -286 -500 -11 -36 -16 -40
-83 -62 -70 -23 -71 -23 -71 -58 0 -32 2 -35 34 -38 18 -2 79 8 135 22 181 45
296 59 450 53 78 -3 151 -8 164 -12 19 -6 22 -4 22 18 0 29 -33 57 -95 78 -56
20 -257 17 -369 -5 -48 -9 -91 -15 -93 -12 -13 13 173 307 327 516 82 112 91
129 86 159 -6 41 -32 71 -60 70 -12 0 -39 -7 -61 -16z"/>
<path d="M2362 859 c-55 -27 -115 -97 -158 -181 -38 -76 -43 -117 -16 -141 23
-21 78 -22 117 -1 22 11 31 12 34 3 8 -25 42 -49 69 -49 68 1 188 91 252 190
35 55 36 60 12 60 -10 0 -38 -21 -62 -46 -25 -25 -68 -63 -96 -85 -85 -65
-110 -46 -53 42 38 59 36 93 -5 97 -24 3 -41 -9 -112 -79 -47 -45 -87 -79 -91
-76 -10 10 65 117 119 169 53 51 86 61 95 28 10 -37 43 -13 43 31 0 60 -68 77
-148 38z"/>
<path d="M3867 848 c-13 -18 -37 -55 -52 -81 -18 -31 -56 -70 -110 -112 -85
-67 -120 -85 -161 -85 -53 0 -14 59 89 134 45 33 69 77 65 119 -3 30 -5 32
-48 35 -38 2 -53 -2 -88 -28 -99 -71 -166 -256 -113 -309 50 -50 134 -31 244
55 45 36 57 42 57 27 0 -31 38 -83 60 -83 23 0 95 34 105 50 12 20 20 9 20
-29 1 -50 19 -71 62 -71 45 0 91 20 136 60 l37 32 0 -26 c0 -48 27 -26 98 80
40 60 103 124 123 124 12 0 9 -4 -43 -81 -50 -75 -68 -119 -68 -172 0 -51 22
-77 64 -77 40 0 83 26 148 88 54 51 58 53 58 30 0 -33 29 -58 68 -58 25 0 46
13 102 66 l70 66 0 -31 c0 -21 9 -41 25 -56 47 -48 96 -27 194 83 46 52 74 75
106 86 l44 14 -19 -49 c-20 -50 -27 -139 -12 -139 12 0 44 37 90 106 40 60
103 124 123 124 12 0 9 -4 -43 -81 -50 -75 -68 -119 -68 -172 0 -80 60 -100
141 -49 49 32 184 172 212 221 31 54 -3 37 -104 -50 -102 -89 -166 -135 -175
-126 -9 8 23 62 72 123 74 90 94 125 94 158 0 62 -44 87 -102 58 l-36 -19 -6
29 c-9 47 -51 35 -98 -27 -38 -50 -48 -57 -104 -69 -30 -7 -31 -6 -26 23 17
117 -90 147 -189 54 -27 -25 -51 -54 -54 -64 -6 -18 -216 -212 -222 -205 -2 1
17 46 42 99 46 99 53 133 35 168 -26 48 -74 1 -117 -114 -13 -37 -35 -63 -88
-109 -79 -69 -143 -113 -151 -105 -9 8 23 62 72 123 74 90 94 125 94 158 0 62
-44 87 -102 58 l-36 -19 -6 29 c-14 69 -93 6 -161 -127 -28 -57 -56 -86 -127
-134 -48 -32 -78 -40 -78 -20 0 34 87 175 139 223 35 34 40 65 13 89 -33 30
-59 21 -101 -36 -47 -64 -199 -227 -212 -227 -19 0 -7 28 46 115 30 50 55 98
55 108 0 18 -33 57 -49 57 -6 0 -21 -15 -34 -32z"/>
</g>
</svg>
